<?xml version="1.0" encoding="UTF-8" standalone="no"?>
<!DOCTYPE svg PUBLIC "-//W3C//DTD SVG 1.1//EN" "http://www.w3.org/Graphics/SVG/1.1/DTD/svg11.dtd">
<!-- Generated by graphviz version 2.26.3 (20100126.1600)
 -->
<!-- Title: Classes Pages: 1 -->
<svg xmlns="http://www.w3.org/2000/svg" xmlns:xlink="http://www.w3.org/1999/xlink" width="772pt" height="696pt">
<g id="viewport" class="graph" transform="scale(1 1) rotate(0) translate(4 691.6)">
<title>Classes</title>
<polygon fill="white" stroke="white" points="-4,5 -4,-691.6 769,-691.6 769,5 -4,5"/>
<!-- 09a15e9660c1ebc6f429d818825ce0c6 -->
<g id="node1" class="node"><title>09a15e9660c1ebc6f429d818825ce0c6</title>
<polygon fill="white" stroke="black" points="75,-419.023 1,-419.023 1,-383.023 75,-383.023 75,-419.023"/>
<text text-anchor="middle" x="38" y="-396.423" font-family="Times Roman,serif" font-size="14.00" fill="gray">stdClass</text>
</g>
<!-- 2bb0da7d83de629d21acf7b287691be7 -->
<g id="node2" class="node"><title>2bb0da7d83de629d21acf7b287691be7</title>
<a xlink:href="_ConfigParser_ConfigParser.html" xlink:title="ConfigParser" target="_top">
<polygon fill="white" stroke="black" points="261,-684.023 157,-684.023 157,-648.023 261,-648.023 261,-684.023"/>
<text text-anchor="middle" x="209" y="-661.423" font-family="Times Roman,serif" font-size="14.00">ConfigParser</text>
</a>
</g>
<!-- 2bb0da7d83de629d21acf7b287691be7&#45;&gt;09a15e9660c1ebc6f429d818825ce0c6 -->
<g id="edge2" class="edge"><title>2bb0da7d83de629d21acf7b287691be7-&gt;09a15e9660c1ebc6f429d818825ce0c6</title>
<path fill="none" stroke="black" d="M172.473,-647.976C163.878,-642.097 155.601,-634.78 150,-626.023 122.699,-583.335 163.672,-401.052 113,-401.023"/>
</g>
<!-- f0510148ffedacc884fa211f1ae49898 -->
<g id="node3" class="node"><title>f0510148ffedacc884fa211f1ae49898</title>
<a xlink:href="_ConfigParser_File.html" xlink:title="File" target="_top">
<polygon fill="white" stroke="black" points="236,-617.023 182,-617.023 182,-581.023 236,-581.023 236,-617.023"/>
<text text-anchor="middle" x="209" y="-594.423" font-family="Times Roman,serif" font-size="14.00">File</text>
</a>
</g>
<!-- f0510148ffedacc884fa211f1ae49898&#45;&gt;09a15e9660c1ebc6f429d818825ce0c6 -->
<g id="edge4" class="edge"><title>f0510148ffedacc884fa211f1ae49898-&gt;09a15e9660c1ebc6f429d818825ce0c6</title>
<path fill="none" stroke="black" d="M181.754,-586.774C170.346,-580.347 157.922,-571.414 150,-560.023 108.574,-500.457 185.555,-401.065 113,-401.023"/>
</g>
<!-- ca2c9b7ae9bf35883478ff04efef2c48 -->
<g id="node4" class="node"><title>ca2c9b7ae9bf35883478ff04efef2c48</title>
<a xlink:href="_ParameterBag.html" xlink:title="ParameterBag" target="_top">
<polygon fill="white" stroke="black" points="267,-551.023 151,-551.023 151,-515.023 267,-515.023 267,-551.023"/>
<text text-anchor="middle" x="209" y="-528.423" font-family="Times Roman,serif" font-size="14.00">ParameterBag</text>
</a>
</g>
<!-- ca2c9b7ae9bf35883478ff04efef2c48&#45;&gt;09a15e9660c1ebc6f429d818825ce0c6 -->
<g id="edge6" class="edge"><title>ca2c9b7ae9bf35883478ff04efef2c48-&gt;09a15e9660c1ebc6f429d818825ce0c6</title>
<path fill="none" stroke="black" d="M174.007,-514.905C165.301,-509.14 156.584,-502.121 150,-494.023 121.936,-459.508 157.484,-401.049 113,-401.023"/>
</g>
<!-- 9ed35f00accb6182f4635a57e8511f8c -->
<g id="node5" class="node"><title>9ed35f00accb6182f4635a57e8511f8c</title>
<a xlink:href="_Google_Maps_BaseMap.html" xlink:title="BaseMap" target="_top">
<polygon fill="white" stroke="black" points="249,-485.023 169,-485.023 169,-449.023 249,-449.023 249,-485.023"/>
<text text-anchor="middle" x="209" y="-462.423" font-family="Times Roman,serif" font-size="14.00">BaseMap</text>
</a>
</g>
<!-- 9ed35f00accb6182f4635a57e8511f8c&#45;&gt;09a15e9660c1ebc6f429d818825ce0c6 -->
<g id="edge8" class="edge"><title>9ed35f00accb6182f4635a57e8511f8c-&gt;09a15e9660c1ebc6f429d818825ce0c6</title>
<path fill="none" stroke="black" d="M180.91,-448.836C171.068,-442.363 159.983,-434.959 150,-428.023 133.282,-416.407 133.357,-401.035 113,-401.023"/>
</g>
<!-- 2592dca3ccd3d4c78bfcd5dae3083516 -->
<g id="node6" class="node"><title>2592dca3ccd3d4c78bfcd5dae3083516</title>
<a xlink:href="_Google_Maps_Map.html" xlink:title="Map" target="_top">
<polygon fill="white" stroke="black" points="441,-485.023 387,-485.023 387,-449.023 441,-449.023 441,-485.023"/>
<text text-anchor="middle" x="414" y="-462.423" font-family="Times Roman,serif" font-size="14.00">Map</text>
</a>
</g>
<!-- 2592dca3ccd3d4c78bfcd5dae3083516&#45;&gt;9ed35f00accb6182f4635a57e8511f8c -->
<g id="edge10" class="edge"><title>2592dca3ccd3d4c78bfcd5dae3083516-&gt;9ed35f00accb6182f4635a57e8511f8c</title>
<path fill="none" stroke="black" d="M386.962,-464.833C364.807,-463.562 332.705,-462.921 305,-467.023"/>
</g>
<!-- c7303f6af5d1517e456a9ee730c80b2b -->
<g id="node7" class="node"><title>c7303f6af5d1517e456a9ee730c80b2b</title>
<a xlink:href="_Google_Maps_StaticMap.html" xlink:title="StaticMap" target="_top">
<polygon fill="white" stroke="black" points="457,-419.023 371,-419.023 371,-383.023 457,-383.023 457,-419.023"/>
<text text-anchor="middle" x="414" y="-396.423" font-family="Times Roman,serif" font-size="14.00">StaticMap</text>
</a>
</g>
<!-- c7303f6af5d1517e456a9ee730c80b2b&#45;&gt;9ed35f00accb6182f4635a57e8511f8c -->
<g id="edge12" class="edge"><title>c7303f6af5d1517e456a9ee730c80b2b-&gt;9ed35f00accb6182f4635a57e8511f8c</title>
<path fill="none" stroke="black" d="M378.302,-419.141C366.547,-425.428 353.538,-432.734 342,-440.023 324.789,-450.895 325.138,-464.041 305,-467.023"/>
<path fill="none" stroke="black" d="M305,-467.023C290.406,-469.183 274.428,-469.85 259.766,-469.797"/>
<polygon fill="none" stroke="black" points="259.413,-466.292 249.362,-469.643 259.309,-473.291 259.413,-466.292"/>
</g>
<!-- 7aa8004f00f0f9f1297715fdde9fdc60 -->
<g id="node8" class="node"><title>7aa8004f00f0f9f1297715fdde9fdc60</title>
<a xlink:href="_Google_Maps_Marker.html" xlink:title="Marker" target="_top">
<polygon fill="white" stroke="black" points="241,-419.023 177,-419.023 177,-383.023 241,-383.023 241,-419.023"/>
<text text-anchor="middle" x="209" y="-396.423" font-family="Times Roman,serif" font-size="14.00">Marker</text>
</a>
</g>
<!-- 7aa8004f00f0f9f1297715fdde9fdc60&#45;&gt;09a15e9660c1ebc6f429d818825ce0c6 -->
<g id="edge14" class="edge"><title>7aa8004f00f0f9f1297715fdde9fdc60-&gt;09a15e9660c1ebc6f429d818825ce0c6</title>
<path fill="none" stroke="black" d="M176.121,-401.032C157.584,-401.035 134,-401.035 113,-401.023"/>
</g>
<!-- 6094164c9df0a4ff4c333d3612b62efc -->
<g id="node9" class="node"><title>6094164c9df0a4ff4c333d3612b62efc</title>
<a xlink:href="_Google_Maps_MapInterface.html" xlink:title="MapInterface" target="_top">
<polygon fill="white" stroke="black" points="263,-353.023 155,-353.023 155,-317.023 263,-317.023 263,-353.023"/>
<text text-anchor="middle" x="209" y="-330.423" font-family="Times Roman,serif" font-size="14.00">MapInterface</text>
</a>
</g>
<!-- 6094164c9df0a4ff4c333d3612b62efc&#45;&gt;09a15e9660c1ebc6f429d818825ce0c6 -->
<g id="edge16" class="edge"><title>6094164c9df0a4ff4c333d3612b62efc-&gt;09a15e9660c1ebc6f429d818825ce0c6</title>
<path fill="none" stroke="black" d="M180.91,-353.21C171.068,-359.683 159.983,-367.087 150,-374.023 133.282,-385.639 133.357,-401.035 113,-401.023"/>
</g>
<!-- f252415517c35cc5d29828a1de37036c -->
<g id="node10" class="node"><title>f252415517c35cc5d29828a1de37036c</title>
<a xlink:href="_Google_GoogleMap.html" xlink:title="GoogleMap" target="_top">
<polygon fill="white" stroke="black" points="256,-287.023 162,-287.023 162,-251.023 256,-251.023 256,-287.023"/>
<text text-anchor="middle" x="209" y="-264.423" font-family="Times Roman,serif" font-size="14.00">GoogleMap</text>
</a>
</g>
<!-- f252415517c35cc5d29828a1de37036c&#45;&gt;09a15e9660c1ebc6f429d818825ce0c6 -->
<g id="edge18" class="edge"><title>f252415517c35cc5d29828a1de37036c-&gt;09a15e9660c1ebc6f429d818825ce0c6</title>
<path fill="none" stroke="black" d="M174.007,-287.14C165.301,-292.905 156.584,-299.925 150,-308.023 121.936,-342.537 157.484,-401.049 113,-401.023"/>
</g>
<!-- 08721dd89eb5dda35fb46d99bdd7b97c -->
<g id="node11" class="node"><title>08721dd89eb5dda35fb46d99bdd7b97c</title>
<a xlink:href="_Helper.html" xlink:title="Helper" target="_top">
<polygon fill="white" stroke="black" points="240,-221.023 178,-221.023 178,-185.023 240,-185.023 240,-221.023"/>
<text text-anchor="middle" x="209" y="-198.423" font-family="Times Roman,serif" font-size="14.00">Helper</text>
</a>
</g>
<!-- 08721dd89eb5dda35fb46d99bdd7b97c&#45;&gt;09a15e9660c1ebc6f429d818825ce0c6 -->
<g id="edge20" class="edge"><title>08721dd89eb5dda35fb46d99bdd7b97c-&gt;09a15e9660c1ebc6f429d818825ce0c6</title>
<path fill="none" stroke="black" d="M177.477,-217.776C167.336,-223.95 156.94,-232.043 150,-242.023 108.574,-301.589 185.555,-401.065 113,-401.023"/>
</g>
<!-- d1457b72c3fb323a2671125aef3eab5d -->
<g id="node12" class="node"><title>d1457b72c3fb323a2671125aef3eab5d</title>
<polygon fill="white" stroke="black" points="236,-155.023 182,-155.023 182,-119.023 236,-119.023 236,-155.023"/>
<text text-anchor="middle" x="209" y="-132.423" font-family="Times Roman,serif" font-size="14.00" fill="gray">?</text>
</g>
<!-- d1457b72c3fb323a2671125aef3eab5d&#45;&gt;09a15e9660c1ebc6f429d818825ce0c6 -->
<g id="edge22" class="edge"><title>d1457b72c3fb323a2671125aef3eab5d-&gt;09a15e9660c1ebc6f429d818825ce0c6</title>
<path fill="none" stroke="black" d="M181.704,-148.866C170.143,-155.256 157.611,-164.275 150,-176.023 122.449,-218.55 163.672,-401.052 113,-401.023"/>
<path fill="none" stroke="black" d="M113,-401.023C104.202,-401.018 94.823,-401.015 85.7831,-401.015"/>
<polygon fill="none" stroke="black" points="85.7698,-397.515 75.7697,-401.014 85.7696,-404.515 85.7698,-397.515"/>
</g>
<!-- 59852f5f5aeb9baac5559e683c18c585 -->
<g id="node13" class="node"><title>59852f5f5aeb9baac5559e683c18c585</title>
<polygon fill="white" stroke="black" points="486,-155.023 342,-155.023 342,-119.023 486,-119.023 486,-155.023"/>
<text text-anchor="middle" x="414" y="-132.423" font-family="Times Roman,serif" font-size="14.00" fill="gray">RuntimeException</text>
</g>
<!-- 59852f5f5aeb9baac5559e683c18c585&#45;&gt;d1457b72c3fb323a2671125aef3eab5d -->
<g id="edge24" class="edge"><title>59852f5f5aeb9baac5559e683c18c585-&gt;d1457b72c3fb323a2671125aef3eab5d</title>
<path fill="none" stroke="black" d="M341.847,-133.376C329.487,-133.789 316.823,-134.873 305,-137.023"/>
</g>
<!-- 1b39345f1de27ed289d20db22b5860f6 -->
<g id="node14" class="node"><title>1b39345f1de27ed289d20db22b5860f6</title>
<a xlink:href="_ConfigParser_Exception_NoSectionException.html" xlink:title="NoSectionException" target="_top">
<polygon fill="white" stroke="black" points="740,-238.023 584,-238.023 584,-202.023 740,-202.023 740,-238.023"/>
<text text-anchor="middle" x="662" y="-215.423" font-family="Times Roman,serif" font-size="14.00">NoSectionException</text>
</a>
</g>
<!-- 1b39345f1de27ed289d20db22b5860f6&#45;&gt;59852f5f5aeb9baac5559e683c18c585 -->
<g id="edge26" class="edge"><title>1b39345f1de27ed289d20db22b5860f6-&gt;59852f5f5aeb9baac5559e683c18c585</title>
<path fill="none" stroke="black" d="M606.811,-201.972C591.292,-196.087 574.659,-188.989 560,-181.023 542.113,-171.302 543.296,-155.596 523,-154.023"/>
</g>
<!-- 8cb1e1ea972eac5d2b34288174018ff0 -->
<g id="node15" class="node"><title>8cb1e1ea972eac5d2b34288174018ff0</title>
<a xlink:href="_ConfigParser_Exception_NoOptionException.html" xlink:title="NoOptionException" target="_top">
<polygon fill="white" stroke="black" points="737,-172.023 587,-172.023 587,-136.023 737,-136.023 737,-172.023"/>
<text text-anchor="middle" x="662" y="-149.423" font-family="Times Roman,serif" font-size="14.00">NoOptionException</text>
</a>
</g>
<!-- 8cb1e1ea972eac5d2b34288174018ff0&#45;&gt;59852f5f5aeb9baac5559e683c18c585 -->
<g id="edge28" class="edge"><title>8cb1e1ea972eac5d2b34288174018ff0-&gt;59852f5f5aeb9baac5559e683c18c585</title>
<path fill="none" stroke="black" d="M586.17,-156.145C565.645,-156.141 543.451,-155.608 523,-154.023"/>
</g>
<!-- 1972162996edfdf1892158db6df670c0 -->
<g id="node16" class="node"><title>1972162996edfdf1892158db6df670c0</title>
<a xlink:href="_ConfigParser_Exception_DuplicateSectionException.html" xlink:title="DuplicateSectionException" target="_top">
<polygon fill="white" stroke="black" points="764,-106.023 560,-106.023 560,-70.0228 764,-70.0228 764,-106.023"/>
<text text-anchor="middle" x="662" y="-83.4228" font-family="Times Roman,serif" font-size="14.00">DuplicateSectionException</text>
</a>
</g>
<!-- 1972162996edfdf1892158db6df670c0&#45;&gt;59852f5f5aeb9baac5559e683c18c585 -->
<g id="edge30" class="edge"><title>1972162996edfdf1892158db6df670c0-&gt;59852f5f5aeb9baac5559e683c18c585</title>
<path fill="none" stroke="black" d="M606.811,-106.073C591.292,-111.959 574.659,-119.056 560,-127.023 542.113,-136.743 543.296,-155.596 523,-154.023"/>
<path fill="none" stroke="black" d="M523,-154.023C514.329,-153.351 505.304,-152.382 496.325,-151.243"/>
<polygon fill="none" stroke="black" points="496.602,-147.749 486.226,-149.892 495.674,-154.688 496.602,-147.749"/>
</g>
<!-- dd644541c5bab85004de09d91c7f1cab -->
<g id="node17" class="node"><title>dd644541c5bab85004de09d91c7f1cab</title>
<polygon fill="white" stroke="black" points="465,-73.0228 363,-73.0228 363,-37.0228 465,-37.0228 465,-73.0228"/>
<text text-anchor="middle" x="414" y="-50.4228" font-family="Times Roman,serif" font-size="14.00" fill="gray">ArrayAccess</text>
</g>
<!-- dd644541c5bab85004de09d91c7f1cab&#45;&gt;d1457b72c3fb323a2671125aef3eab5d -->
<g id="edge32" class="edge"><title>dd644541c5bab85004de09d91c7f1cab-&gt;d1457b72c3fb323a2671125aef3eab5d</title>
<path fill="none" stroke="black" d="M390.17,-73.1556C358.487,-97.2355 306.296,-136.787 305,-137.023"/>
<path fill="none" stroke="black" d="M305,-137.023C285.81,-140.513 264.102,-140.812 246.19,-140.108"/>
<polygon fill="none" stroke="black" points="246.295,-136.609 236.129,-139.594 245.938,-143.6 246.295,-136.609"/>
</g>
<!-- 74fc8d88a32d56a787cbf022e5bed4d6 -->
<g id="node18" class="node"><title>74fc8d88a32d56a787cbf022e5bed4d6</title>
<a xlink:href="_ConfigParser_ConfigParserInterface.html" xlink:title="ConfigParserInterface" target="_top">
<polygon fill="white" stroke="black" points="746,-40.0228 578,-40.0228 578,-4.02278 746,-4.02278 746,-40.0228"/>
<text text-anchor="middle" x="662" y="-17.4228" font-family="Times Roman,serif" font-size="14.00">ConfigParserInterface</text>
</a>
</g>
<!-- 74fc8d88a32d56a787cbf022e5bed4d6&#45;&gt;dd644541c5bab85004de09d91c7f1cab -->
<g id="edge34" class="edge"><title>74fc8d88a32d56a787cbf022e5bed4d6-&gt;dd644541c5bab85004de09d91c7f1cab</title>
<path fill="none" stroke="black" d="M577.692,-33.2411C544.26,-37.6898 506.525,-42.711 475.717,-46.8104"/>
<polygon fill="none" stroke="black" points="475.002,-43.3746 465.551,-48.1632 475.925,-50.3135 475.002,-43.3746"/>
</g>
</g>
<script xlink:href="js/SVGPan.js"/></svg>
