<?xml version="1.0" encoding="UTF-8" standalone="no"?>
<!DOCTYPE svg PUBLIC "-//W3C//DTD SVG 1.1//EN" "http://www.w3.org/Graphics/SVG/1.1/DTD/svg11.dtd">
<!-- Generated by graphviz version 2.26.3 (20100126.1600)
 -->
<!-- Title: G Pages: 1 -->
<svg xmlns="http://www.w3.org/2000/svg" xmlns:xlink="http://www.w3.org/1999/xlink" width="925pt" height="1486pt">
<g id="viewport" class="graph" transform="scale(1 1) rotate(0) translate(4 1482)">
<title>G</title>
<polygon fill="white" stroke="white" points="-4,5 -4,-1482 922,-1482 922,5 -4,5"/>
<g id="graph2" class="cluster"><title>cluster_NoiseLabs</title>
<polyline fill="none" stroke="gray" points="20,-158 897,-158 "/>
<path fill="none" stroke="gray" d="M897,-158C903,-158 909,-164 909,-170"/>
<polyline fill="none" stroke="gray" points="909,-170 909,-1458 "/>
<path fill="none" stroke="gray" d="M909,-1458C909,-1464 903,-1470 897,-1470"/>
<polyline fill="none" stroke="gray" points="897,-1470 20,-1470 "/>
<path fill="none" stroke="gray" d="M20,-1470C14,-1470 8,-1464 8,-1458"/>
<polyline fill="none" stroke="gray" points="8,-1458 8,-170 "/>
<path fill="none" stroke="gray" d="M8,-170C8,-164 14,-158 20,-158"/>
<text text-anchor="middle" x="458.5" y="-1456.1" font-family="Times Roman,serif" font-size="11.00" fill="gray">NoiseLabs</text>
</g>
<g id="graph3" class="cluster"><title>cluster_NoiseLabs_ToolKit</title>
<polyline fill="none" stroke="gray" points="28,-166 889,-166 "/>
<path fill="none" stroke="gray" d="M889,-166C895,-166 901,-172 901,-178"/>
<polyline fill="none" stroke="gray" points="901,-178 901,-1427 "/>
<path fill="none" stroke="gray" d="M901,-1427C901,-1433 895,-1439 889,-1439"/>
<polyline fill="none" stroke="gray" points="889,-1439 28,-1439 "/>
<path fill="none" stroke="gray" d="M28,-1439C22,-1439 16,-1433 16,-1427"/>
<polyline fill="none" stroke="gray" points="16,-1427 16,-178 "/>
<path fill="none" stroke="gray" d="M16,-178C16,-172 22,-166 28,-166"/>
<text text-anchor="middle" x="458.5" y="-1425.1" font-family="Times Roman,serif" font-size="11.00" fill="gray">ToolKit</text>
</g>
<g id="graph4" class="cluster"><title>cluster_NoiseLabs_ToolKit_ConfigParser</title>
<polyline fill="none" stroke="gray" points="264,-220 881,-220 "/>
<path fill="none" stroke="gray" d="M881,-220C887,-220 893,-226 893,-232"/>
<polyline fill="none" stroke="gray" points="893,-232 893,-628 "/>
<path fill="none" stroke="gray" d="M893,-628C893,-634 887,-640 881,-640"/>
<polyline fill="none" stroke="gray" points="881,-640 264,-640 "/>
<path fill="none" stroke="gray" d="M264,-640C258,-640 252,-634 252,-628"/>
<polyline fill="none" stroke="gray" points="252,-628 252,-232 "/>
<path fill="none" stroke="gray" d="M252,-232C252,-226 258,-220 264,-220"/>
<text text-anchor="middle" x="572.5" y="-626.1" font-family="Times Roman,serif" font-size="11.00" fill="gray">ConfigParser</text>
</g>
<g id="graph5" class="cluster"><title>cluster_NoiseLabs_ToolKit_ConfigParser_Exception</title>
<polyline fill="none" stroke="gray" points="695,-274 873,-274 "/>
<path fill="none" stroke="gray" d="M873,-274C879,-274 885,-280 885,-286"/>
<polyline fill="none" stroke="gray" points="885,-286 885,-445 "/>
<path fill="none" stroke="gray" d="M885,-445C885,-451 879,-457 873,-457"/>
<polyline fill="none" stroke="gray" points="873,-457 695,-457 "/>
<path fill="none" stroke="gray" d="M695,-457C689,-457 683,-451 683,-445"/>
<polyline fill="none" stroke="gray" points="683,-445 683,-286 "/>
<path fill="none" stroke="gray" d="M683,-286C683,-280 689,-274 695,-274"/>
<text text-anchor="middle" x="784" y="-443.1" font-family="Times Roman,serif" font-size="11.00" fill="gray">Exception</text>
</g>
<g id="graph7" class="cluster"><title>cluster_NoiseLabs_ToolKit_GoogleAPI</title>
<polyline fill="none" stroke="gray" points="36,-839 838,-839 "/>
<path fill="none" stroke="gray" d="M838,-839C844,-839 850,-845 850,-851"/>
<polyline fill="none" stroke="gray" points="850,-851 850,-1396 "/>
<path fill="none" stroke="gray" d="M850,-1396C850,-1402 844,-1408 838,-1408"/>
<polyline fill="none" stroke="gray" points="838,-1408 36,-1408 "/>
<path fill="none" stroke="gray" d="M36,-1408C30,-1408 24,-1402 24,-1396"/>
<polyline fill="none" stroke="gray" points="24,-1396 24,-851 "/>
<path fill="none" stroke="gray" d="M24,-851C24,-845 30,-839 36,-839"/>
<text text-anchor="middle" x="437" y="-1394.1" font-family="Times Roman,serif" font-size="11.00" fill="gray">GoogleAPI</text>
</g>
<g id="graph8" class="cluster"><title>cluster_NoiseLabs_ToolKit_GoogleAPI_Maps</title>
<polyline fill="none" stroke="gray" points="44,-947 830,-947 "/>
<path fill="none" stroke="gray" d="M830,-947C836,-947 842,-953 842,-959"/>
<polyline fill="none" stroke="gray" points="842,-959 842,-1365 "/>
<path fill="none" stroke="gray" d="M842,-1365C842,-1371 836,-1377 830,-1377"/>
<polyline fill="none" stroke="gray" points="830,-1377 44,-1377 "/>
<path fill="none" stroke="gray" d="M44,-1377C38,-1377 32,-1371 32,-1365"/>
<polyline fill="none" stroke="gray" points="32,-1365 32,-959 "/>
<path fill="none" stroke="gray" d="M32,-959C32,-953 38,-947 44,-947"/>
<text text-anchor="middle" x="437" y="-1363.1" font-family="Times Roman,serif" font-size="11.00" fill="gray">Maps</text>
</g>
<g id="graph9" class="cluster"><title>cluster_NoiseLabs_ToolKit_GoogleAPI_Maps_Overlay</title>
<polyline fill="none" stroke="gray" points="247,-1109 822,-1109 "/>
<path fill="none" stroke="gray" d="M822,-1109C828,-1109 834,-1115 834,-1121"/>
<polyline fill="none" stroke="gray" points="834,-1121 834,-1334 "/>
<path fill="none" stroke="gray" d="M834,-1334C834,-1340 828,-1346 822,-1346"/>
<polyline fill="none" stroke="gray" points="822,-1346 247,-1346 "/>
<path fill="none" stroke="gray" d="M247,-1346C241,-1346 235,-1340 235,-1334"/>
<polyline fill="none" stroke="gray" points="235,-1334 235,-1121 "/>
<path fill="none" stroke="gray" d="M235,-1121C235,-1115 241,-1109 247,-1109"/>
<text text-anchor="middle" x="534.5" y="-1332.1" font-family="Times Roman,serif" font-size="11.00" fill="gray">Overlay</text>
</g>
<g id="graph14" class="cluster"><title>cluster_NoiseLabs_ToolKit_Runner</title>
<polyline fill="none" stroke="gray" points="349,-648 836,-648 "/>
<path fill="none" stroke="gray" d="M836,-648C842,-648 848,-654 848,-660"/>
<polyline fill="none" stroke="gray" points="848,-660 848,-819 "/>
<path fill="none" stroke="gray" d="M848,-819C848,-825 842,-831 836,-831"/>
<polyline fill="none" stroke="gray" points="836,-831 349,-831 "/>
<path fill="none" stroke="gray" d="M349,-831C343,-831 337,-825 337,-819"/>
<polyline fill="none" stroke="gray" points="337,-819 337,-660 "/>
<path fill="none" stroke="gray" d="M337,-660C337,-654 343,-648 349,-648"/>
<text text-anchor="middle" x="592.5" y="-817.1" font-family="Times Roman,serif" font-size="11.00" fill="gray">Runner</text>
</g>
<!-- _NoiseLabs_ToolKit_ConfigParser_Exception_NoSectionException -->
<g id="node5" class="node"><title>_NoiseLabs_ToolKit_ConfigParser_Exception_NoSectionException</title>
<a xlink:href="db_NoiseLabs_ToolKit_ConfigParser_Exception_NoSectionException.html" xlink:title="NoSectionException" target="_parent">
<polygon fill="none" stroke="black" points="853,-426 715,-426 715,-390 853,-390 853,-426"/>
<text text-anchor="middle" x="784" y="-405.1" font-family="Courier New" font-size="11.00">NoSectionException</text>
</a>
</g>
<!-- _RuntimeException -->
<g id="node61" class="node"><title>_RuntimeException</title>
<ellipse fill="none" stroke="black" cx="431" cy="-131" rx="85.7684" ry="19.0919"/>
<text text-anchor="middle" x="431" y="-127.9" font-family="Times Roman,serif" font-size="14.00" fill="gray">\RuntimeException</text>
</g>
<!-- _NoiseLabs_ToolKit_ConfigParser_Exception_NoSectionException&#45;&gt;_RuntimeException -->
<g id="edge40" class="edge"><title>_NoiseLabs_ToolKit_ConfigParser_Exception_NoSectionException-&gt;_RuntimeException</title>
<path fill="none" stroke="black" d="M714.938,-398.856C703.287,-394.837 692.054,-389.119 683,-381 624.44,-328.488 673.079,-273.116 619,-216 587.102,-182.31 539.356,-160.952 499.964,-148.072"/>
<polygon fill="none" stroke="black" points="500.734,-144.645 490.144,-144.977 498.63,-151.321 500.734,-144.645"/>
</g>
<!-- _NoiseLabs_ToolKit_ConfigParser_Exception_NoOptionException -->
<g id="node6" class="node"><title>_NoiseLabs_ToolKit_ConfigParser_Exception_NoOptionException</title>
<a xlink:href="db_NoiseLabs_ToolKit_ConfigParser_Exception_NoOptionException.html" xlink:title="NoOptionException" target="_parent">
<polygon fill="none" stroke="black" points="849,-372 719,-372 719,-336 849,-336 849,-372"/>
<text text-anchor="middle" x="784" y="-351.1" font-family="Courier New" font-size="11.00">NoOptionException</text>
</a>
</g>
<!-- _NoiseLabs_ToolKit_ConfigParser_Exception_NoOptionException&#45;&gt;_RuntimeException -->
<g id="edge42" class="edge"><title>_NoiseLabs_ToolKit_ConfigParser_Exception_NoOptionException-&gt;_RuntimeException</title>
<path fill="none" stroke="black" d="M718.278,-344.453C705.719,-340.494 693.296,-334.9 683,-327 637.822,-292.333 661.199,-254.238 619,-216 583.886,-184.182 534.86,-162.55 495.677,-149.073"/>
<polygon fill="none" stroke="black" points="496.535,-145.67 485.942,-145.822 494.318,-152.309 496.535,-145.67"/>
</g>
<!-- _NoiseLabs_ToolKit_ConfigParser_Exception_DuplicateSectionException -->
<g id="node7" class="node"><title>_NoiseLabs_ToolKit_ConfigParser_Exception_DuplicateSectionException</title>
<a xlink:href="db_NoiseLabs_ToolKit_ConfigParser_Exception_DuplicateSectionException.html" xlink:title="DuplicateSectionException" target="_parent">
<polygon fill="none" stroke="black" points="876,-318 692,-318 692,-282 876,-282 876,-318"/>
<text text-anchor="middle" x="784" y="-297.1" font-family="Courier New" font-size="11.00">DuplicateSectionException</text>
</a>
</g>
<!-- _NoiseLabs_ToolKit_ConfigParser_Exception_DuplicateSectionException&#45;&gt;_RuntimeException -->
<g id="edge44" class="edge"><title>_NoiseLabs_ToolKit_ConfigParser_Exception_DuplicateSectionException-&gt;_RuntimeException</title>
<path fill="none" stroke="black" d="M691.308,-282.047C688.466,-280.788 685.689,-279.441 683,-278 648.094,-259.292 651.751,-238.266 619,-216 578.038,-188.152 526.474,-165.588 487.714,-150.725"/>
<polygon fill="none" stroke="black" points="488.742,-147.372 478.15,-147.113 486.269,-153.92 488.742,-147.372"/>
</g>
<!-- _NoiseLabs_ToolKit_ConfigParser_NoSectionsConfigParserInterface -->
<g id="node8" class="node"><title>_NoiseLabs_ToolKit_ConfigParser_NoSectionsConfigParserInterface</title>
<a xlink:href="db_NoiseLabs_ToolKit_ConfigParser_NoSectionsConfigParserInterface.html" xlink:title="NoSectionsConfigParserInterface" target="_parent">
<polygon fill="none" stroke="black" points="544,-383 318,-383 318,-347 544,-347 544,-383"/>
<text text-anchor="middle" x="431" y="-362.1" font-family="Courier New" font-size="11.00">NoSectionsConfigParserInterface</text>
</a>
</g>
<!-- _NoiseLabs_ToolKit_ConfigParser_ConfigParser -->
<g id="node9" class="node"><title>_NoiseLabs_ToolKit_ConfigParser_ConfigParser</title>
<a xlink:href="db_NoiseLabs_ToolKit_ConfigParser_ConfigParser.html" xlink:title="ConfigParser" target="_parent">
<polygon fill="none" stroke="black" points="833,-609 735,-609 735,-573 833,-573 833,-609"/>
<text text-anchor="middle" x="784" y="-588.1" font-family="Courier New" font-size="11.00">ConfigParser</text>
</a>
</g>
<!-- _NoiseLabs_ToolKit_ConfigParser_BaseConfigParser -->
<g id="node11" class="node"><title>_NoiseLabs_ToolKit_ConfigParser_BaseConfigParser</title>
<a xlink:href="db_NoiseLabs_ToolKit_ConfigParser_BaseConfigParser.html" xlink:title="&lt;I&gt;_NoiseLabs_ToolKit_ConfigParser_BaseConfigParser&lt;/I&gt;" target="_parent">
<polygon fill="none" stroke="black" points="602,-437 260,-437 260,-401 602,-401 602,-437"/>
<text text-anchor="start" x="268.5" y="-416.933" font-family="Courier New" font-size="11.00">_NoiseLabs_ToolKit_ConfigParser_BaseConfigParser</text>
</a>
</g>
<!-- _NoiseLabs_ToolKit_ConfigParser_ConfigParser&#45;&gt;_NoiseLabs_ToolKit_ConfigParser_BaseConfigParser -->
<g id="edge38" class="edge"><title>_NoiseLabs_ToolKit_ConfigParser_ConfigParser-&gt;_NoiseLabs_ToolKit_ConfigParser_BaseConfigParser</title>
<path fill="none" stroke="black" d="M734.859,-580.6C718.095,-576.338 699.44,-570.79 683,-564 600.871,-530.079 512.529,-474.242 465.357,-442.672"/>
<polygon fill="none" stroke="black" points="467.289,-439.753 457.039,-437.07 463.379,-445.559 467.289,-439.753"/>
</g>
<!-- _NoiseLabs_ToolKit_ConfigParser_ConfigParserInterface -->
<g id="node13" class="node"><title>_NoiseLabs_ToolKit_ConfigParser_ConfigParserInterface</title>
<a xlink:href="db_NoiseLabs_ToolKit_ConfigParser_ConfigParserInterface.html" xlink:title="ConfigParserInterface" target="_parent">
<polygon fill="none" stroke="black" points="510,-609 352,-609 352,-573 510,-573 510,-609"/>
<text text-anchor="middle" x="431" y="-588.1" font-family="Courier New" font-size="11.00">ConfigParserInterface</text>
</a>
</g>
<!-- _NoiseLabs_ToolKit_ConfigParser_ConfigParser&#45;&gt;_NoiseLabs_ToolKit_ConfigParser_ConfigParserInterface -->
<g id="edge52" class="edge"><title>_NoiseLabs_ToolKit_ConfigParser_ConfigParser-&gt;_NoiseLabs_ToolKit_ConfigParser_ConfigParserInterface</title>
<path fill="none" stroke="black" stroke-dasharray="1,5" d="M734.917,-591C679.598,-591 588.522,-591 520.469,-591"/>
<polygon fill="none" stroke="black" points="520.179,-587.5 510.179,-591 520.179,-594.5 520.179,-587.5"/>
</g>
<!-- _NoiseLabs_ToolKit_ConfigParser_ParameterBag -->
<g id="node10" class="node"><title>_NoiseLabs_ToolKit_ConfigParser_ParameterBag</title>
<a xlink:href="db_NoiseLabs_ToolKit_ConfigParser_ParameterBag.html" xlink:title="ParameterBag" target="_parent">
<polygon fill="none" stroke="black" points="833,-501 735,-501 735,-465 833,-465 833,-501"/>
<text text-anchor="middle" x="784" y="-480.1" font-family="Courier New" font-size="11.00">ParameterBag</text>
</a>
</g>
<!-- _ArrayAccess -->
<g id="node66" class="node"><title>_ArrayAccess</title>
<ellipse fill="none" stroke="black" cx="89" cy="-131" rx="63.1385" ry="19.0919"/>
<text text-anchor="middle" x="89" y="-127.9" font-family="Times Roman,serif" font-size="14.00" fill="gray">\ArrayAccess</text>
</g>
<!-- _NoiseLabs_ToolKit_ConfigParser_BaseConfigParser&#45;&gt;_ArrayAccess -->
<g id="edge54" class="edge"><title>_NoiseLabs_ToolKit_ConfigParser_BaseConfigParser-&gt;_ArrayAccess</title>
<path fill="none" stroke="black" stroke-dasharray="1,5" d="M259.948,-405.594C251.19,-401.817 242.802,-397.325 235,-392 152.004,-335.362 111.056,-215.199 96.0126,-159.925"/>
<polygon fill="none" stroke="black" points="99.3519,-158.861 93.4226,-150.08 92.5823,-160.642 99.3519,-158.861"/>
</g>
<!-- _IteratorAggregate -->
<g id="node71" class="node"><title>_IteratorAggregate</title>
<ellipse fill="none" stroke="black" cx="89" cy="-75" rx="82.0244" ry="19.0919"/>
<text text-anchor="middle" x="89" y="-71.9" font-family="Times Roman,serif" font-size="14.00" fill="gray">\IteratorAggregate</text>
</g>
<!-- _NoiseLabs_ToolKit_ConfigParser_BaseConfigParser&#45;&gt;_IteratorAggregate -->
<g id="edge56" class="edge"><title>_NoiseLabs_ToolKit_ConfigParser_BaseConfigParser-&gt;_IteratorAggregate</title>
<path fill="none" stroke="black" stroke-dasharray="1,5" d="M259.703,-409.124C250.785,-404.513 242.449,-398.869 235,-392 138.284,-302.82 258.715,-201.046 171,-103 167.516,-99.1058 163.468,-95.7529 159.073,-92.866"/>
<polygon fill="none" stroke="black" points="160.677,-89.752 150.251,-87.8692 157.227,-95.8429 160.677,-89.752"/>
</g>
<!-- _Countable -->
<g id="node73" class="node"><title>_Countable</title>
<ellipse fill="none" stroke="black" cx="89" cy="-19" rx="53.2379" ry="19.0919"/>
<text text-anchor="middle" x="89" y="-15.9" font-family="Times Roman,serif" font-size="14.00" fill="gray">\Countable</text>
</g>
<!-- _NoiseLabs_ToolKit_ConfigParser_BaseConfigParser&#45;&gt;_Countable -->
<g id="edge58" class="edge"><title>_NoiseLabs_ToolKit_ConfigParser_BaseConfigParser-&gt;_Countable</title>
<path fill="none" stroke="black" stroke-dasharray="1,5" d="M259.872,-409.661C250.853,-404.933 242.454,-399.115 235,-392 122.192,-284.322 272.958,-165.003 171,-47 164.722,-39.7346 156.478,-34.3515 147.637,-30.3638"/>
<polygon fill="none" stroke="black" points="148.854,-27.0814 138.266,-26.6928 146.3,-33.5992 148.854,-27.0814"/>
</g>
<!-- _NoiseLabs_ToolKit_ConfigParser_NoSectionsConfigParser -->
<g id="node12" class="node"><title>_NoiseLabs_ToolKit_ConfigParser_NoSectionsConfigParser</title>
<a xlink:href="db_NoiseLabs_ToolKit_ConfigParser_NoSectionsConfigParser.html" xlink:title="NoSectionsConfigParser" target="_parent">
<polygon fill="none" stroke="black" points="866,-555 702,-555 702,-519 866,-519 866,-555"/>
<text text-anchor="middle" x="784" y="-534.1" font-family="Courier New" font-size="11.00">NoSectionsConfigParser</text>
</a>
</g>
<!-- _NoiseLabs_ToolKit_ConfigParser_NoSectionsConfigParser&#45;&gt;_NoiseLabs_ToolKit_ConfigParser_NoSectionsConfigParserInterface -->
<g id="edge60" class="edge"><title>_NoiseLabs_ToolKit_ConfigParser_NoSectionsConfigParser-&gt;_NoiseLabs_ToolKit_ConfigParser_NoSectionsConfigParserInterface</title>
<path fill="none" stroke="black" stroke-dasharray="1,5" d="M701.301,-521.135C694.769,-518.055 688.559,-514.382 683,-510 636.144,-473.067 667.962,-426.092 619,-392 599.939,-378.728 577.135,-370.716 554.09,-366.073"/>
<polygon fill="none" stroke="black" points="554.673,-362.622 544.209,-364.284 553.426,-369.51 554.673,-362.622"/>
</g>
<!-- _NoiseLabs_ToolKit_ConfigParser_NoSectionsConfigParser&#45;&gt;_NoiseLabs_ToolKit_ConfigParser_BaseConfigParser -->
<g id="edge46" class="edge"><title>_NoiseLabs_ToolKit_ConfigParser_NoSectionsConfigParser-&gt;_NoiseLabs_ToolKit_ConfigParser_BaseConfigParser</title>
<path fill="none" stroke="black" d="M713.415,-518.956C703.171,-516.098 692.785,-513.069 683,-510 614.826,-488.621 537.74,-460.137 486.98,-440.77"/>
<polygon fill="none" stroke="black" points="488.094,-437.449 477.503,-437.143 485.592,-443.986 488.094,-437.449"/>
</g>
<!-- _NoiseLabs_ToolKit_ConfigParser_File -->
<g id="node14" class="node"><title>_NoiseLabs_ToolKit_ConfigParser_File</title>
<a xlink:href="db_NoiseLabs_ToolKit_ConfigParser_File.html" xlink:title="File" target="_parent">
<polygon fill="none" stroke="black" points="811,-264 757,-264 757,-228 811,-228 811,-264"/>
<text text-anchor="middle" x="784" y="-243.1" font-family="Courier New" font-size="11.00">File</text>
</a>
</g>
<!-- _NoiseLabs_ToolKit_GoogleAPI_Maps_Overlay_Icon -->
<g id="node19" class="node"><title>_NoiseLabs_ToolKit_GoogleAPI_Maps_Overlay_Icon</title>
<a xlink:href="db_NoiseLabs_ToolKit_GoogleAPI_Maps_Overlay_Icon.html" xlink:title="Icon" target="_parent">
<polygon fill="none" stroke="black" points="811,-1315 757,-1315 757,-1279 811,-1279 811,-1315"/>
<text text-anchor="middle" x="784" y="-1294.1" font-family="Courier New" font-size="11.00">Icon</text>
</a>
</g>
<!-- _NoiseLabs_ToolKit_GoogleAPI_Maps_Overlay_BaseOverlay -->
<g id="node23" class="node"><title>_NoiseLabs_ToolKit_GoogleAPI_Maps_Overlay_BaseOverlay</title>
<a xlink:href="db_NoiseLabs_ToolKit_GoogleAPI_Maps_Overlay_BaseOverlay.html" xlink:title="&lt;I&gt;_NoiseLabs_ToolKit_GoogleAPI_Maps_Overlay_BaseOverlay&lt;/I&gt;" target="_parent">
<polygon fill="none" stroke="black" points="618,-1234 244,-1234 244,-1198 618,-1198 618,-1234"/>
<text text-anchor="start" x="252" y="-1213.93" font-family="Courier New" font-size="11.00">_NoiseLabs_ToolKit_GoogleAPI_Maps_Overlay_BaseOverlay</text>
</a>
</g>
<!-- _NoiseLabs_ToolKit_GoogleAPI_Maps_Overlay_Icon&#45;&gt;_NoiseLabs_ToolKit_GoogleAPI_Maps_Overlay_BaseOverlay -->
<g id="edge30" class="edge"><title>_NoiseLabs_ToolKit_GoogleAPI_Maps_Overlay_Icon-&gt;_NoiseLabs_ToolKit_GoogleAPI_Maps_Overlay_BaseOverlay</title>
<path fill="none" stroke="black" d="M756.887,-1290.78C706.802,-1279.29 597.766,-1254.27 519.606,-1236.33"/>
<polygon fill="none" stroke="black" points="520.284,-1232.9 509.754,-1234.07 518.718,-1239.72 520.284,-1232.9"/>
</g>
<!-- _NoiseLabs_ToolKit_GoogleAPI_Maps_Overlay_InfoWindow -->
<g id="node20" class="node"><title>_NoiseLabs_ToolKit_GoogleAPI_Maps_Overlay_InfoWindow</title>
<a xlink:href="db_NoiseLabs_ToolKit_GoogleAPI_Maps_Overlay_InfoWindow.html" xlink:title="InfoWindow" target="_parent">
<polygon fill="none" stroke="black" points="826,-1261 742,-1261 742,-1225 826,-1225 826,-1261"/>
<text text-anchor="middle" x="784" y="-1240.1" font-family="Courier New" font-size="11.00">InfoWindow</text>
</a>
</g>
<!-- _NoiseLabs_ToolKit_GoogleAPI_Maps_Overlay_InfoWindow&#45;&gt;_NoiseLabs_ToolKit_GoogleAPI_Maps_Overlay_BaseOverlay -->
<g id="edge32" class="edge"><title>_NoiseLabs_ToolKit_GoogleAPI_Maps_Overlay_InfoWindow-&gt;_NoiseLabs_ToolKit_GoogleAPI_Maps_Overlay_BaseOverlay</title>
<path fill="none" stroke="black" d="M741.771,-1239.77C712.654,-1237.54 671.622,-1234.4 628.894,-1231.14"/>
<polygon fill="none" stroke="black" points="629.12,-1227.64 618.883,-1230.37 628.587,-1234.62 629.12,-1227.64"/>
</g>
<!-- _NoiseLabs_ToolKit_GoogleAPI_Maps_Overlay_Polyline -->
<g id="node21" class="node"><title>_NoiseLabs_ToolKit_GoogleAPI_Maps_Overlay_Polyline</title>
<a xlink:href="db_NoiseLabs_ToolKit_GoogleAPI_Maps_Overlay_Polyline.html" xlink:title="Polyline" target="_parent">
<polygon fill="none" stroke="black" points="819,-1207 749,-1207 749,-1171 819,-1171 819,-1207"/>
<text text-anchor="middle" x="784" y="-1186.1" font-family="Courier New" font-size="11.00">Polyline</text>
</a>
</g>
<!-- _NoiseLabs_ToolKit_GoogleAPI_Maps_Overlay_Polyline&#45;&gt;_NoiseLabs_ToolKit_GoogleAPI_Maps_Overlay_BaseOverlay -->
<g id="edge34" class="edge"><title>_NoiseLabs_ToolKit_GoogleAPI_Maps_Overlay_Polyline-&gt;_NoiseLabs_ToolKit_GoogleAPI_Maps_Overlay_BaseOverlay</title>
<path fill="none" stroke="black" d="M748.21,-1191.74C718.898,-1193.98 674.894,-1197.35 628.922,-1200.86"/>
<polygon fill="none" stroke="black" points="628.479,-1197.39 618.775,-1201.64 629.013,-1204.36 628.479,-1197.39"/>
</g>
<!-- _NoiseLabs_ToolKit_GoogleAPI_Maps_Overlay_Marker -->
<g id="node22" class="node"><title>_NoiseLabs_ToolKit_GoogleAPI_Maps_Overlay_Marker</title>
<a xlink:href="db_NoiseLabs_ToolKit_GoogleAPI_Maps_Overlay_Marker.html" xlink:title="Marker" target="_parent">
<polygon fill="none" stroke="black" points="812,-1153 756,-1153 756,-1117 812,-1117 812,-1153"/>
<text text-anchor="middle" x="784" y="-1132.1" font-family="Courier New" font-size="11.00">Marker</text>
</a>
</g>
<!-- _NoiseLabs_ToolKit_GoogleAPI_Maps_Overlay_Marker&#45;&gt;_NoiseLabs_ToolKit_GoogleAPI_Maps_Overlay_BaseOverlay -->
<g id="edge36" class="edge"><title>_NoiseLabs_ToolKit_GoogleAPI_Maps_Overlay_Marker-&gt;_NoiseLabs_ToolKit_GoogleAPI_Maps_Overlay_BaseOverlay</title>
<path fill="none" stroke="black" d="M755.216,-1141.06C734.739,-1145.76 706.76,-1152.99 683,-1162 653.264,-1173.28 649.473,-1184.9 619,-1194 617.524,-1194.44 616.039,-1194.87 614.546,-1195.3"/>
<polygon fill="none" stroke="black" points="613.334,-1192 604.581,-1197.97 615.146,-1198.76 613.334,-1192"/>
</g>
<!-- _NoiseLabs_ToolKit_GoogleAPI_Maps_Map -->
<g id="node24" class="node"><title>_NoiseLabs_ToolKit_GoogleAPI_Maps_Map</title>
<a xlink:href="db_NoiseLabs_ToolKit_GoogleAPI_Maps_Map.html" xlink:title="Map" target="_parent">
<polygon fill="none" stroke="black" points="811,-1099 757,-1099 757,-1063 811,-1063 811,-1099"/>
<text text-anchor="middle" x="784" y="-1078.1" font-family="Courier New" font-size="11.00">Map</text>
</a>
</g>
<!-- _NoiseLabs_ToolKit_GoogleAPI_Maps_BaseMap -->
<g id="node26" class="node"><title>_NoiseLabs_ToolKit_GoogleAPI_Maps_BaseMap</title>
<a xlink:href="db_NoiseLabs_ToolKit_GoogleAPI_Maps_BaseMap.html" xlink:title="&lt;I&gt;_NoiseLabs_ToolKit_GoogleAPI_Maps_BaseMap&lt;/I&gt;" target="_parent">
<polygon fill="none" stroke="black" points="578,-1045 284,-1045 284,-1009 578,-1009 578,-1045"/>
<text text-anchor="start" x="292.5" y="-1024.93" font-family="Courier New" font-size="11.00">_NoiseLabs_ToolKit_GoogleAPI_Maps_BaseMap</text>
</a>
</g>
<!-- _NoiseLabs_ToolKit_GoogleAPI_Maps_Map&#45;&gt;_NoiseLabs_ToolKit_GoogleAPI_Maps_BaseMap -->
<g id="edge26" class="edge"><title>_NoiseLabs_ToolKit_GoogleAPI_Maps_Map-&gt;_NoiseLabs_ToolKit_GoogleAPI_Maps_BaseMap</title>
<path fill="none" stroke="black" d="M756.887,-1076.85C714.792,-1070.41 631.057,-1057.6 559.009,-1046.58"/>
<polygon fill="none" stroke="black" points="559.34,-1043.09 548.925,-1045.04 558.281,-1050.01 559.34,-1043.09"/>
</g>
<!-- _NoiseLabs_ToolKit_GoogleAPI_Maps_Geolocation -->
<g id="node25" class="node"><title>_NoiseLabs_ToolKit_GoogleAPI_Maps_Geolocation</title>
<a xlink:href="db_NoiseLabs_ToolKit_GoogleAPI_Maps_Geolocation.html" xlink:title="Geolocation" target="_parent">
<polygon fill="none" stroke="black" points="829,-1045 739,-1045 739,-1009 829,-1009 829,-1045"/>
<text text-anchor="middle" x="784" y="-1024.1" font-family="Courier New" font-size="11.00">Geolocation</text>
</a>
</g>
<!-- _NoiseLabs_ToolKit_GoogleAPI_Maps_MapInterface -->
<g id="node28" class="node"><title>_NoiseLabs_ToolKit_GoogleAPI_Maps_MapInterface</title>
<a xlink:href="db_NoiseLabs_ToolKit_GoogleAPI_Maps_MapInterface.html" xlink:title="MapInterface" target="_parent">
<polygon fill="none" stroke="black" points="138,-1045 40,-1045 40,-1009 138,-1009 138,-1045"/>
<text text-anchor="middle" x="89" y="-1024.1" font-family="Courier New" font-size="11.00">MapInterface</text>
</a>
</g>
<!-- _NoiseLabs_ToolKit_GoogleAPI_Maps_BaseMap&#45;&gt;_NoiseLabs_ToolKit_GoogleAPI_Maps_MapInterface -->
<g id="edge50" class="edge"><title>_NoiseLabs_ToolKit_GoogleAPI_Maps_BaseMap-&gt;_NoiseLabs_ToolKit_GoogleAPI_Maps_MapInterface</title>
<path fill="none" stroke="black" stroke-dasharray="1,5" d="M283.976,-1027C236.317,-1027 186.123,-1027 148.599,-1027"/>
<polygon fill="none" stroke="black" points="148.365,-1023.5 138.364,-1027 148.364,-1030.5 148.365,-1023.5"/>
</g>
<!-- _NoiseLabs_ToolKit_GoogleAPI_Maps_StaticMap -->
<g id="node27" class="node"><title>_NoiseLabs_ToolKit_GoogleAPI_Maps_StaticMap</title>
<a xlink:href="db_NoiseLabs_ToolKit_GoogleAPI_Maps_StaticMap.html" xlink:title="StaticMap" target="_parent">
<polygon fill="none" stroke="black" points="822,-991 746,-991 746,-955 822,-955 822,-991"/>
<text text-anchor="middle" x="784" y="-970.1" font-family="Courier New" font-size="11.00">StaticMap</text>
</a>
</g>
<!-- _NoiseLabs_ToolKit_GoogleAPI_Maps_StaticMap&#45;&gt;_NoiseLabs_ToolKit_GoogleAPI_Maps_BaseMap -->
<g id="edge28" class="edge"><title>_NoiseLabs_ToolKit_GoogleAPI_Maps_StaticMap-&gt;_NoiseLabs_ToolKit_GoogleAPI_Maps_BaseMap</title>
<path fill="none" stroke="black" d="M745.213,-978.933C700.58,-985.761 624.956,-997.33 559.083,-1007.41"/>
<polygon fill="none" stroke="black" points="558.377,-1003.97 549.021,-1008.95 559.436,-1010.89 558.377,-1003.97"/>
</g>
<!-- _NoiseLabs_ToolKit_GoogleAPI_GoogleMap -->
<g id="node30" class="node"><title>_NoiseLabs_ToolKit_GoogleAPI_GoogleMap</title>
<a xlink:href="db_NoiseLabs_ToolKit_GoogleAPI_GoogleMap.html" xlink:title="GoogleMap" target="_parent">
<polygon fill="none" stroke="black" points="822,-937 746,-937 746,-901 822,-901 822,-937"/>
<text text-anchor="middle" x="784" y="-916.1" font-family="Courier New" font-size="11.00">GoogleMap</text>
</a>
</g>
<!-- _NoiseLabs_ToolKit_GoogleAPI_ParameterBag -->
<g id="node31" class="node"><title>_NoiseLabs_ToolKit_GoogleAPI_ParameterBag</title>
<a xlink:href="db_NoiseLabs_ToolKit_GoogleAPI_ParameterBag.html" xlink:title="ParameterBag" target="_parent">
<polygon fill="none" stroke="black" points="833,-883 735,-883 735,-847 833,-847 833,-883"/>
<text text-anchor="middle" x="784" y="-862.1" font-family="Courier New" font-size="11.00">ParameterBag</text>
</a>
</g>
<!-- _NoiseLabs_ToolKit_Runner_ProcessManager -->
<g id="node36" class="node"><title>_NoiseLabs_ToolKit_Runner_ProcessManager</title>
<a xlink:href="db_NoiseLabs_ToolKit_Runner_ProcessManager.html" xlink:title="ProcessManager" target="_parent">
<polygon fill="none" stroke="black" points="839,-800 729,-800 729,-764 839,-764 839,-800"/>
<text text-anchor="middle" x="784" y="-779.1" font-family="Courier New" font-size="11.00">ProcessManager</text>
</a>
</g>
<!-- _NoiseLabs_ToolKit_Runner_ProcessManagerInterface -->
<g id="node39" class="node"><title>_NoiseLabs_ToolKit_Runner_ProcessManagerInterface</title>
<a xlink:href="db_NoiseLabs_ToolKit_Runner_ProcessManagerInterface.html" xlink:title="ProcessManagerInterface" target="_parent">
<polygon fill="none" stroke="black" points="517,-773 345,-773 345,-737 517,-737 517,-773"/>
<text text-anchor="middle" x="431" y="-752.1" font-family="Courier New" font-size="11.00">ProcessManagerInterface</text>
</a>
</g>
<!-- _NoiseLabs_ToolKit_Runner_ProcessManager&#45;&gt;_NoiseLabs_ToolKit_Runner_ProcessManagerInterface -->
<g id="edge62" class="edge"><title>_NoiseLabs_ToolKit_Runner_ProcessManager-&gt;_NoiseLabs_ToolKit_Runner_ProcessManagerInterface</title>
<path fill="none" stroke="black" stroke-dasharray="1,5" d="M728.455,-777.752C674.64,-773.635 591.918,-767.308 527.358,-762.37"/>
<polygon fill="none" stroke="black" points="527.397,-758.863 517.159,-761.59 526.863,-765.843 527.397,-758.863"/>
</g>
<!-- _NoiseLabs_ToolKit_Runner_ParameterBag -->
<g id="node37" class="node"><title>_NoiseLabs_ToolKit_Runner_ParameterBag</title>
<a xlink:href="db_NoiseLabs_ToolKit_Runner_ParameterBag.html" xlink:title="ParameterBag" target="_parent">
<polygon fill="none" stroke="black" points="833,-746 735,-746 735,-710 833,-710 833,-746"/>
<text text-anchor="middle" x="784" y="-725.1" font-family="Courier New" font-size="11.00">ParameterBag</text>
</a>
</g>
<!-- _NoiseLabs_ToolKit_Runner_ProcessInterface -->
<g id="node38" class="node"><title>_NoiseLabs_ToolKit_Runner_ProcessInterface</title>
<a xlink:href="db_NoiseLabs_ToolKit_Runner_ProcessInterface.html" xlink:title="ProcessInterface" target="_parent">
<polygon fill="none" stroke="black" points="493,-692 369,-692 369,-656 493,-656 493,-692"/>
<text text-anchor="middle" x="431" y="-671.1" font-family="Courier New" font-size="11.00">ProcessInterface</text>
</a>
</g>
<!-- _NoiseLabs_ToolKit_Runner_ProcessManagerInterface&#45;&gt;_ArrayAccess -->
<g id="edge48" class="edge"><title>_NoiseLabs_ToolKit_Runner_ProcessManagerInterface-&gt;_ArrayAccess</title>
<path fill="none" stroke="black" d="M344.998,-750.423C306.621,-744.038 263.688,-730.212 235,-701 157.142,-621.721 106.175,-265.546 92.6221,-160.346"/>
<polygon fill="none" stroke="black" points="96.0582,-159.622 91.3242,-150.143 89.1142,-160.505 96.0582,-159.622"/>
</g>
<!-- _NoiseLabs_ToolKit_Runner_Process -->
<g id="node40" class="node"><title>_NoiseLabs_ToolKit_Runner_Process</title>
<a xlink:href="db_NoiseLabs_ToolKit_Runner_Process.html" xlink:title="Process" target="_parent">
<polygon fill="none" stroke="black" points="816,-692 752,-692 752,-656 816,-656 816,-692"/>
<text text-anchor="middle" x="784" y="-671.1" font-family="Courier New" font-size="11.00">Process</text>
</a>
</g>
<!-- _NoiseLabs_ToolKit_Runner_Process&#45;&gt;_NoiseLabs_ToolKit_Runner_ProcessInterface -->
<g id="edge64" class="edge"><title>_NoiseLabs_ToolKit_Runner_Process-&gt;_NoiseLabs_ToolKit_Runner_ProcessInterface</title>
<path fill="none" stroke="black" stroke-dasharray="1,5" d="M751.738,-674C695.868,-674 579.797,-674 503.685,-674"/>
<polygon fill="none" stroke="black" points="503.684,-670.5 493.684,-674 503.684,-677.5 503.684,-670.5"/>
</g>
<!-- _NoiseLabs_ToolKit_Helper -->
<g id="node41" class="node"><title>_NoiseLabs_ToolKit_Helper</title>
<a xlink:href="db_NoiseLabs_ToolKit_Helper.html" xlink:title="Helper" target="_parent">
<polygon fill="none" stroke="black" points="812,-210 756,-210 756,-174 812,-174 812,-210"/>
<text text-anchor="middle" x="784" y="-189.1" font-family="Courier New" font-size="11.00">Helper</text>
</a>
</g>
</g>
<script xlink:href="js/SVGPan.js"/></svg>
