<?xml version="1.0" encoding="UTF-8" standalone="no"?>
<!DOCTYPE svg PUBLIC "-//W3C//DTD SVG 1.1//EN" "http://www.w3.org/Graphics/SVG/1.1/DTD/svg11.dtd">
<!-- Generated by graphviz version 2.26.3 (20100126.1600)
 -->
<!-- Title: G Pages: 1 -->
<svg xmlns="http://www.w3.org/2000/svg" xmlns:xlink="http://www.w3.org/1999/xlink" width="1074pt" height="1837pt">
<g id="viewport" class="graph" transform="scale(1 1) rotate(0) translate(4 1833)">
<title>G</title>
<polygon fill="white" stroke="white" points="-4,5 -4,-1833 1071,-1833 1071,5 -4,5"/>
<g id="graph2" class="cluster"><title>cluster_NoiseLabs</title>
<polyline fill="none" stroke="gray" points="20,-214 1046,-214 "/>
<path fill="none" stroke="gray" d="M1046,-214C1052,-214 1058,-220 1058,-226"/>
<polyline fill="none" stroke="gray" points="1058,-226 1058,-1809 "/>
<path fill="none" stroke="gray" d="M1058,-1809C1058,-1815 1052,-1821 1046,-1821"/>
<polyline fill="none" stroke="gray" points="1046,-1821 20,-1821 "/>
<path fill="none" stroke="gray" d="M20,-1821C14,-1821 8,-1815 8,-1809"/>
<polyline fill="none" stroke="gray" points="8,-1809 8,-226 "/>
<path fill="none" stroke="gray" d="M8,-226C8,-220 14,-214 20,-214"/>
<text text-anchor="middle" x="533" y="-1807.1" font-family="Times Roman,serif" font-size="11.00" fill="gray">NoiseLabs</text>
</g>
<g id="graph3" class="cluster"><title>cluster_NoiseLabs_ToolKit</title>
<polyline fill="none" stroke="gray" points="28,-222 1038,-222 "/>
<path fill="none" stroke="gray" d="M1038,-222C1044,-222 1050,-228 1050,-234"/>
<polyline fill="none" stroke="gray" points="1050,-234 1050,-1778 "/>
<path fill="none" stroke="gray" d="M1050,-1778C1050,-1784 1044,-1790 1038,-1790"/>
<polyline fill="none" stroke="gray" points="1038,-1790 28,-1790 "/>
<path fill="none" stroke="gray" d="M28,-1790C22,-1790 16,-1784 16,-1778"/>
<polyline fill="none" stroke="gray" points="16,-1778 16,-234 "/>
<path fill="none" stroke="gray" d="M16,-234C16,-228 22,-222 28,-222"/>
<text text-anchor="middle" x="533" y="-1776.1" font-family="Times Roman,serif" font-size="11.00" fill="gray">ToolKit</text>
</g>
<g id="graph4" class="cluster"><title>cluster_NoiseLabs_ToolKit_ConfigParser</title>
<polyline fill="none" stroke="gray" points="343,-276 1017,-276 "/>
<path fill="none" stroke="gray" d="M1017,-276C1023,-276 1029,-282 1029,-288"/>
<polyline fill="none" stroke="gray" points="1029,-288 1029,-684 "/>
<path fill="none" stroke="gray" d="M1029,-684C1029,-690 1023,-696 1017,-696"/>
<polyline fill="none" stroke="gray" points="1017,-696 343,-696 "/>
<path fill="none" stroke="gray" d="M343,-696C337,-696 331,-690 331,-684"/>
<polyline fill="none" stroke="gray" points="331,-684 331,-288 "/>
<path fill="none" stroke="gray" d="M331,-288C331,-282 337,-276 343,-276"/>
<text text-anchor="middle" x="680" y="-682.1" font-family="Times Roman,serif" font-size="11.00" fill="gray">ConfigParser</text>
</g>
<g id="graph5" class="cluster"><title>cluster_NoiseLabs_ToolKit_ConfigParser_Exception</title>
<polyline fill="none" stroke="gray" points="831,-330 1009,-330 "/>
<path fill="none" stroke="gray" d="M1009,-330C1015,-330 1021,-336 1021,-342"/>
<polyline fill="none" stroke="gray" points="1021,-342 1021,-501 "/>
<path fill="none" stroke="gray" d="M1021,-501C1021,-507 1015,-513 1009,-513"/>
<polyline fill="none" stroke="gray" points="1009,-513 831,-513 "/>
<path fill="none" stroke="gray" d="M831,-513C825,-513 819,-507 819,-501"/>
<polyline fill="none" stroke="gray" points="819,-501 819,-342 "/>
<path fill="none" stroke="gray" d="M819,-342C819,-336 825,-330 831,-330"/>
<text text-anchor="middle" x="920" y="-499.1" font-family="Times Roman,serif" font-size="11.00" fill="gray">Exception</text>
</g>
<g id="graph7" class="cluster"><title>cluster_NoiseLabs_ToolKit_GoogleAPI</title>
<polyline fill="none" stroke="gray" points="36,-704 1030,-704 "/>
<path fill="none" stroke="gray" d="M1030,-704C1036,-704 1042,-710 1042,-716"/>
<polyline fill="none" stroke="gray" points="1042,-716 1042,-1556 "/>
<path fill="none" stroke="gray" d="M1042,-1556C1042,-1562 1036,-1568 1030,-1568"/>
<polyline fill="none" stroke="gray" points="1030,-1568 36,-1568 "/>
<path fill="none" stroke="gray" d="M36,-1568C30,-1568 24,-1562 24,-1556"/>
<polyline fill="none" stroke="gray" points="24,-1556 24,-716 "/>
<path fill="none" stroke="gray" d="M24,-716C24,-710 30,-704 36,-704"/>
<text text-anchor="middle" x="533" y="-1554.1" font-family="Times Roman,serif" font-size="11.00" fill="gray">GoogleAPI</text>
</g>
<g id="graph8" class="cluster"><title>cluster_NoiseLabs_ToolKit_GoogleAPI_Maps</title>
<polyline fill="none" stroke="gray" points="44,-810 1022,-810 "/>
<path fill="none" stroke="gray" d="M1022,-810C1028,-810 1034,-816 1034,-822"/>
<polyline fill="none" stroke="gray" points="1034,-822 1034,-1525 "/>
<path fill="none" stroke="gray" d="M1034,-1525C1034,-1531 1028,-1537 1022,-1537"/>
<polyline fill="none" stroke="gray" points="1022,-1537 44,-1537 "/>
<path fill="none" stroke="gray" d="M44,-1537C38,-1537 32,-1531 32,-1525"/>
<polyline fill="none" stroke="gray" points="32,-1525 32,-822 "/>
<path fill="none" stroke="gray" d="M32,-822C32,-816 38,-810 44,-810"/>
<text text-anchor="middle" x="533" y="-1523.1" font-family="Times Roman,serif" font-size="11.00" fill="gray">Maps</text>
</g>
<g id="graph9" class="cluster"><title>cluster_NoiseLabs_ToolKit_GoogleAPI_Maps_Overlay</title>
<polyline fill="none" stroke="gray" points="52,-818 1014,-818 "/>
<path fill="none" stroke="gray" d="M1014,-818C1020,-818 1026,-824 1026,-830"/>
<polyline fill="none" stroke="gray" points="1026,-830 1026,-1342 "/>
<path fill="none" stroke="gray" d="M1026,-1342C1026,-1348 1020,-1354 1014,-1354"/>
<polyline fill="none" stroke="gray" points="1014,-1354 52,-1354 "/>
<path fill="none" stroke="gray" d="M52,-1354C46,-1354 40,-1348 40,-1342"/>
<polyline fill="none" stroke="gray" points="40,-1342 40,-830 "/>
<path fill="none" stroke="gray" d="M40,-830C40,-824 46,-818 52,-818"/>
<text text-anchor="middle" x="533" y="-1340.1" font-family="Times Roman,serif" font-size="11.00" fill="gray">Overlay</text>
</g>
<g id="graph10" class="cluster"><title>cluster_NoiseLabs_ToolKit_GoogleAPI_Maps_Overlay_Collection</title>
<polyline fill="none" stroke="gray" points="269,-826 1006,-826 "/>
<path fill="none" stroke="gray" d="M1006,-826C1012,-826 1018,-832 1018,-838"/>
<polyline fill="none" stroke="gray" points="1018,-838 1018,-997 "/>
<path fill="none" stroke="gray" d="M1018,-997C1018,-1003 1012,-1009 1006,-1009"/>
<polyline fill="none" stroke="gray" points="1006,-1009 269,-1009 "/>
<path fill="none" stroke="gray" d="M269,-1009C263,-1009 257,-1003 257,-997"/>
<polyline fill="none" stroke="gray" points="257,-997 257,-838 "/>
<path fill="none" stroke="gray" d="M257,-838C257,-832 263,-826 269,-826"/>
<text text-anchor="middle" x="637.5" y="-995.1" font-family="Times Roman,serif" font-size="11.00" fill="gray">Collection</text>
</g>
<g id="graph22" class="cluster"><title>cluster_NoiseLabs_ToolKit_Runner</title>
<polyline fill="none" stroke="gray" points="428,-1576 972,-1576 "/>
<path fill="none" stroke="gray" d="M972,-1576C978,-1576 984,-1582 984,-1588"/>
<polyline fill="none" stroke="gray" points="984,-1588 984,-1747 "/>
<path fill="none" stroke="gray" d="M984,-1747C984,-1753 978,-1759 972,-1759"/>
<polyline fill="none" stroke="gray" points="972,-1759 428,-1759 "/>
<path fill="none" stroke="gray" d="M428,-1759C422,-1759 416,-1753 416,-1747"/>
<polyline fill="none" stroke="gray" points="416,-1747 416,-1588 "/>
<path fill="none" stroke="gray" d="M416,-1588C416,-1582 422,-1576 428,-1576"/>
<text text-anchor="middle" x="700" y="-1745.1" font-family="Times Roman,serif" font-size="11.00" fill="gray">Runner</text>
</g>
<!-- _NoiseLabs_ToolKit_ConfigParser_Exception_NoSectionException -->
<g id="node5" class="node"><title>_NoiseLabs_ToolKit_ConfigParser_Exception_NoSectionException</title>
<a xlink:href="db_NoiseLabs_ToolKit_ConfigParser_Exception_NoSectionException.html" xlink:title="NoSectionException" target="_parent">
<polygon fill="none" stroke="black" points="989,-374 851,-374 851,-338 989,-338 989,-374"/>
<text text-anchor="middle" x="920" y="-353.1" font-family="Courier New" font-size="11.00">NoSectionException</text>
</a>
</g>
<!-- _RuntimeException -->
<g id="node90" class="node"><title>_RuntimeException</title>
<ellipse fill="none" stroke="black" cx="510" cy="-187" rx="85.7684" ry="19.0919"/>
<text text-anchor="middle" x="510" y="-183.9" font-family="Times Roman,serif" font-size="14.00" fill="gray">\RuntimeException</text>
</g>
<!-- _NoiseLabs_ToolKit_ConfigParser_Exception_NoSectionException&#45;&gt;_RuntimeException -->
<g id="edge66" class="edge"><title>_NoiseLabs_ToolKit_ConfigParser_Exception_NoSectionException-&gt;_RuntimeException</title>
<path fill="none" stroke="black" d="M850.798,-346.301C839.787,-343.257 828.807,-339.256 819,-334 784.094,-315.292 788.727,-292.759 755,-272 701.082,-238.814 632.472,-216.439 581.581,-203.011"/>
<polygon fill="none" stroke="black" points="582.206,-199.557 571.648,-200.444 580.454,-206.335 582.206,-199.557"/>
</g>
<!-- _NoiseLabs_ToolKit_ConfigParser_Exception_NoOptionException -->
<g id="node6" class="node"><title>_NoiseLabs_ToolKit_ConfigParser_Exception_NoOptionException</title>
<a xlink:href="db_NoiseLabs_ToolKit_ConfigParser_Exception_NoOptionException.html" xlink:title="NoOptionException" target="_parent">
<polygon fill="none" stroke="black" points="985,-482 855,-482 855,-446 985,-446 985,-482"/>
<text text-anchor="middle" x="920" y="-461.1" font-family="Courier New" font-size="11.00">NoOptionException</text>
</a>
</g>
<!-- _NoiseLabs_ToolKit_ConfigParser_Exception_NoOptionException&#45;&gt;_RuntimeException -->
<g id="edge68" class="edge"><title>_NoiseLabs_ToolKit_ConfigParser_Exception_NoOptionException-&gt;_RuntimeException</title>
<path fill="none" stroke="black" d="M854.339,-455.978C841.487,-451.924 828.932,-445.906 819,-437 760.44,-384.488 811.613,-326.607 755,-272 711.924,-230.451 647.523,-209.132 595.558,-198.238"/>
<polygon fill="none" stroke="black" points="596.167,-194.791 585.674,-196.259 594.792,-201.654 596.167,-194.791"/>
</g>
<!-- _NoiseLabs_ToolKit_ConfigParser_Exception_DuplicateSectionException -->
<g id="node7" class="node"><title>_NoiseLabs_ToolKit_ConfigParser_Exception_DuplicateSectionException</title>
<a xlink:href="db_NoiseLabs_ToolKit_ConfigParser_Exception_DuplicateSectionException.html" xlink:title="DuplicateSectionException" target="_parent">
<polygon fill="none" stroke="black" points="1012,-428 828,-428 828,-392 1012,-392 1012,-428"/>
<text text-anchor="middle" x="920" y="-407.1" font-family="Courier New" font-size="11.00">DuplicateSectionException</text>
</a>
</g>
<!-- _NoiseLabs_ToolKit_ConfigParser_Exception_DuplicateSectionException&#45;&gt;_RuntimeException -->
<g id="edge70" class="edge"><title>_NoiseLabs_ToolKit_ConfigParser_Exception_DuplicateSectionException-&gt;_RuntimeException</title>
<path fill="none" stroke="black" d="M832.936,-391.776C828.014,-389.223 823.32,-386.315 819,-383 773.822,-348.333 798.888,-308.286 755,-272 708.141,-233.258 642.542,-211.737 591.014,-200.049"/>
<polygon fill="none" stroke="black" points="591.752,-196.627 581.235,-197.909 590.256,-203.466 591.752,-196.627"/>
</g>
<!-- _NoiseLabs_ToolKit_ConfigParser_NoSectionsConfigParserInterface -->
<g id="node8" class="node"><title>_NoiseLabs_ToolKit_ConfigParser_NoSectionsConfigParserInterface</title>
<a xlink:href="db_NoiseLabs_ToolKit_ConfigParser_NoSectionsConfigParserInterface.html" xlink:title="NoSectionsConfigParserInterface" target="_parent">
<polygon fill="none" stroke="black" points="623,-439 397,-439 397,-403 623,-403 623,-439"/>
<text text-anchor="middle" x="510" y="-418.1" font-family="Courier New" font-size="11.00">NoSectionsConfigParserInterface</text>
</a>
</g>
<!-- _NoiseLabs_ToolKit_ConfigParser_ConfigParser -->
<g id="node9" class="node"><title>_NoiseLabs_ToolKit_ConfigParser_ConfigParser</title>
<a xlink:href="db_NoiseLabs_ToolKit_ConfigParser_ConfigParser.html" xlink:title="ConfigParser" target="_parent">
<polygon fill="none" stroke="black" points="969,-665 871,-665 871,-629 969,-629 969,-665"/>
<text text-anchor="middle" x="920" y="-644.1" font-family="Courier New" font-size="11.00">ConfigParser</text>
</a>
</g>
<!-- _NoiseLabs_ToolKit_ConfigParser_BaseConfigParser -->
<g id="node11" class="node"><title>_NoiseLabs_ToolKit_ConfigParser_BaseConfigParser</title>
<a xlink:href="db_NoiseLabs_ToolKit_ConfigParser_BaseConfigParser.html" xlink:title="&lt;I&gt;_NoiseLabs_ToolKit_ConfigParser_BaseConfigParser&lt;/I&gt;" target="_parent">
<polygon fill="none" stroke="black" points="681,-493 339,-493 339,-457 681,-457 681,-493"/>
<text text-anchor="start" x="347.5" y="-472.933" font-family="Courier New" font-size="11.00">_NoiseLabs_ToolKit_ConfigParser_BaseConfigParser</text>
</a>
</g>
<!-- _NoiseLabs_ToolKit_ConfigParser_ConfigParser&#45;&gt;_NoiseLabs_ToolKit_ConfigParser_BaseConfigParser -->
<g id="edge64" class="edge"><title>_NoiseLabs_ToolKit_ConfigParser_ConfigParser-&gt;_NoiseLabs_ToolKit_ConfigParser_BaseConfigParser</title>
<path fill="none" stroke="black" d="M870.909,-635.744C854.235,-631.43 835.624,-626.068 819,-620 720.719,-584.126 611.027,-528.766 552.411,-497.861"/>
<polygon fill="none" stroke="black" points="553.927,-494.704 543.451,-493.118 550.651,-500.89 553.927,-494.704"/>
</g>
<!-- _NoiseLabs_ToolKit_ConfigParser_ConfigParserInterface -->
<g id="node13" class="node"><title>_NoiseLabs_ToolKit_ConfigParser_ConfigParserInterface</title>
<a xlink:href="db_NoiseLabs_ToolKit_ConfigParser_ConfigParserInterface.html" xlink:title="ConfigParserInterface" target="_parent">
<polygon fill="none" stroke="black" points="589,-665 431,-665 431,-629 589,-629 589,-665"/>
<text text-anchor="middle" x="510" y="-644.1" font-family="Courier New" font-size="11.00">ConfigParserInterface</text>
</a>
</g>
<!-- _NoiseLabs_ToolKit_ConfigParser_ConfigParser&#45;&gt;_NoiseLabs_ToolKit_ConfigParser_ConfigParserInterface -->
<g id="edge80" class="edge"><title>_NoiseLabs_ToolKit_ConfigParser_ConfigParser-&gt;_NoiseLabs_ToolKit_ConfigParser_ConfigParserInterface</title>
<path fill="none" stroke="black" stroke-dasharray="1,5" d="M870.952,-647C804.026,-647 682.905,-647 599.558,-647"/>
<polygon fill="none" stroke="black" points="599.333,-643.5 589.333,-647 599.333,-650.5 599.333,-643.5"/>
</g>
<!-- _NoiseLabs_ToolKit_ConfigParser_ParameterBag -->
<g id="node10" class="node"><title>_NoiseLabs_ToolKit_ConfigParser_ParameterBag</title>
<a xlink:href="db_NoiseLabs_ToolKit_ConfigParser_ParameterBag.html" xlink:title="ParameterBag" target="_parent">
<polygon fill="none" stroke="black" points="969,-557 871,-557 871,-521 969,-521 969,-557"/>
<text text-anchor="middle" x="920" y="-536.1" font-family="Courier New" font-size="11.00">ParameterBag</text>
</a>
</g>
<!-- _ArrayAccess -->
<g id="node95" class="node"><title>_ArrayAccess</title>
<ellipse fill="none" stroke="black" cx="111" cy="-187" rx="63.1385" ry="19.0919"/>
<text text-anchor="middle" x="111" y="-183.9" font-family="Times Roman,serif" font-size="14.00" fill="gray">\ArrayAccess</text>
</g>
<!-- _NoiseLabs_ToolKit_ConfigParser_BaseConfigParser&#45;&gt;_ArrayAccess -->
<g id="edge82" class="edge"><title>_NoiseLabs_ToolKit_ConfigParser_BaseConfigParser-&gt;_ArrayAccess</title>
<path fill="none" stroke="black" stroke-dasharray="1,5" d="M338.983,-479.004C309.93,-473.639 281.33,-464.064 257,-448 173.148,-392.637 132.638,-271.822 117.86,-216.152"/>
<polygon fill="none" stroke="black" points="121.191,-215.054 115.318,-206.236 114.41,-216.792 121.191,-215.054"/>
</g>
<!-- _IteratorAggregate -->
<g id="node101" class="node"><title>_IteratorAggregate</title>
<ellipse fill="none" stroke="black" cx="111" cy="-19" rx="82.0244" ry="19.0919"/>
<text text-anchor="middle" x="111" y="-15.9" font-family="Times Roman,serif" font-size="14.00" fill="gray">\IteratorAggregate</text>
</g>
<!-- _NoiseLabs_ToolKit_ConfigParser_BaseConfigParser&#45;&gt;_IteratorAggregate -->
<g id="edge84" class="edge"><title>_NoiseLabs_ToolKit_ConfigParser_BaseConfigParser-&gt;_IteratorAggregate</title>
<path fill="none" stroke="black" stroke-dasharray="1,5" d="M338.918,-486.668C308.503,-480.955 279.425,-469.289 257,-448 126.112,-323.74 309.268,-185.036 193,-47 189.634,-43.0036 185.672,-39.5762 181.337,-36.637"/>
<polygon fill="none" stroke="black" points="183.006,-33.5592 172.601,-31.5652 179.492,-39.6129 183.006,-33.5592"/>
</g>
<!-- _Countable -->
<g id="node103" class="node"><title>_Countable</title>
<ellipse fill="none" stroke="black" cx="111" cy="-75" rx="53.2379" ry="19.0919"/>
<text text-anchor="middle" x="111" y="-71.9" font-family="Times Roman,serif" font-size="14.00" fill="gray">\Countable</text>
</g>
<!-- _NoiseLabs_ToolKit_ConfigParser_BaseConfigParser&#45;&gt;_Countable -->
<g id="edge86" class="edge"><title>_NoiseLabs_ToolKit_ConfigParser_BaseConfigParser-&gt;_Countable</title>
<path fill="none" stroke="black" stroke-dasharray="1,5" d="M338.687,-486.096C308.472,-480.377 279.529,-468.856 257,-448 142.559,-342.059 294.958,-221.003 193,-103 186.722,-95.7346 178.478,-90.3515 169.637,-86.3638"/>
<polygon fill="none" stroke="black" points="170.854,-83.0814 160.266,-82.6928 168.3,-89.5992 170.854,-83.0814"/>
</g>
<!-- _NoiseLabs_ToolKit_ConfigParser_NoSectionsConfigParser -->
<g id="node12" class="node"><title>_NoiseLabs_ToolKit_ConfigParser_NoSectionsConfigParser</title>
<a xlink:href="db_NoiseLabs_ToolKit_ConfigParser_NoSectionsConfigParser.html" xlink:title="NoSectionsConfigParser" target="_parent">
<polygon fill="none" stroke="black" points="1002,-611 838,-611 838,-575 1002,-575 1002,-611"/>
<text text-anchor="middle" x="920" y="-590.1" font-family="Courier New" font-size="11.00">NoSectionsConfigParser</text>
</a>
</g>
<!-- _NoiseLabs_ToolKit_ConfigParser_NoSectionsConfigParser&#45;&gt;_NoiseLabs_ToolKit_ConfigParser_NoSectionsConfigParserInterface -->
<g id="edge88" class="edge"><title>_NoiseLabs_ToolKit_ConfigParser_NoSectionsConfigParser-&gt;_NoiseLabs_ToolKit_ConfigParser_NoSectionsConfigParserInterface</title>
<path fill="none" stroke="black" stroke-dasharray="1,5" d="M837.301,-577.135C830.769,-574.055 824.559,-570.382 819,-566 772.144,-529.067 804.516,-481.282 755,-448 719.729,-424.293 674.953,-414.916 633.355,-412.319"/>
<polygon fill="none" stroke="black" points="633.298,-408.812 623.137,-411.81 632.951,-415.803 633.298,-408.812"/>
</g>
<!-- _NoiseLabs_ToolKit_ConfigParser_NoSectionsConfigParser&#45;&gt;_NoiseLabs_ToolKit_ConfigParser_BaseConfigParser -->
<g id="edge72" class="edge"><title>_NoiseLabs_ToolKit_ConfigParser_NoSectionsConfigParser-&gt;_NoiseLabs_ToolKit_ConfigParser_BaseConfigParser</title>
<path fill="none" stroke="black" d="M851.481,-574.933C840.603,-571.992 829.485,-568.945 819,-566 736.463,-542.818 641.972,-514.768 579.441,-495.993"/>
<polygon fill="none" stroke="black" points="580.27,-492.588 569.686,-493.062 578.255,-499.292 580.27,-492.588"/>
</g>
<!-- _NoiseLabs_ToolKit_ConfigParser_File -->
<g id="node14" class="node"><title>_NoiseLabs_ToolKit_ConfigParser_File</title>
<a xlink:href="db_NoiseLabs_ToolKit_ConfigParser_File.html" xlink:title="File" target="_parent">
<polygon fill="none" stroke="black" points="947,-320 893,-320 893,-284 947,-284 947,-320"/>
<text text-anchor="middle" x="920" y="-299.1" font-family="Courier New" font-size="11.00">File</text>
</a>
</g>
<!-- _NoiseLabs_ToolKit_GoogleAPI_Maps_Overlay_Collection_OverlayCollection -->
<g id="node20" class="node"><title>_NoiseLabs_ToolKit_GoogleAPI_Maps_Overlay_Collection_OverlayCollection</title>
<a xlink:href="db_NoiseLabs_ToolKit_GoogleAPI_Maps_Overlay_Collection_OverlayCollection.html" xlink:title="&lt;I&gt;_NoiseLabs_ToolKit_GoogleAPI_Maps_Overlay_Collection_OverlayCollection&lt;/I&gt;" target="_parent">
<polygon fill="none" stroke="black" points="755,-924 265,-924 265,-888 755,-888 755,-924"/>
<text text-anchor="start" x="273.5" y="-903.933" font-family="Courier New" font-size="11.00">_NoiseLabs_ToolKit_GoogleAPI_Maps_Overlay_Collection_OverlayCollection</text>
</a>
</g>
<!-- _ArrayObject -->
<g id="node83" class="node"><title>_ArrayObject</title>
<ellipse fill="none" stroke="black" cx="111" cy="-131" rx="62.2254" ry="19.0919"/>
<text text-anchor="middle" x="111" y="-127.9" font-family="Times Roman,serif" font-size="14.00" fill="gray">\ArrayObject</text>
</g>
<!-- _NoiseLabs_ToolKit_GoogleAPI_Maps_Overlay_Collection_OverlayCollection&#45;&gt;_ArrayObject -->
<g id="edge54" class="edge"><title>_NoiseLabs_ToolKit_GoogleAPI_Maps_Overlay_Collection_OverlayCollection-&gt;_ArrayObject</title>
<path fill="none" stroke="black" d="M473.133,-887.955C415.94,-857.795 307.204,-791.333 257,-700 140.37,-487.821 345.197,-347.305 193,-159 188.189,-153.048 182.052,-148.356 175.306,-144.658"/>
<polygon fill="none" stroke="black" points="176.336,-141.276 165.796,-140.206 173.369,-147.616 176.336,-141.276"/>
</g>
<!-- _NoiseLabs_ToolKit_GoogleAPI_Maps_Overlay_Collection_PolylineCollection -->
<g id="node21" class="node"><title>_NoiseLabs_ToolKit_GoogleAPI_Maps_Overlay_Collection_PolylineCollection</title>
<a xlink:href="db_NoiseLabs_ToolKit_GoogleAPI_Maps_Overlay_Collection_PolylineCollection.html" xlink:title="PolylineCollection" target="_parent">
<polygon fill="none" stroke="black" points="989,-978 851,-978 851,-942 989,-942 989,-978"/>
<text text-anchor="middle" x="920" y="-957.1" font-family="Courier New" font-size="11.00">PolylineCollection</text>
</a>
</g>
<!-- _NoiseLabs_ToolKit_GoogleAPI_Maps_Overlay_Collection_PolylineCollection&#45;&gt;_NoiseLabs_ToolKit_GoogleAPI_Maps_Overlay_Collection_OverlayCollection -->
<g id="edge56" class="edge"><title>_NoiseLabs_ToolKit_GoogleAPI_Maps_Overlay_Collection_PolylineCollection-&gt;_NoiseLabs_ToolKit_GoogleAPI_Maps_Overlay_Collection_OverlayCollection</title>
<path fill="none" stroke="black" d="M850.821,-944.953C821.397,-938.978 786.637,-932.476 755,-928 748.395,-927.065 741.683,-926.163 734.903,-925.292"/>
<polygon fill="none" stroke="black" points="735.283,-921.812 724.925,-924.039 734.411,-928.758 735.283,-921.812"/>
</g>
<!-- _NoiseLabs_ToolKit_GoogleAPI_Maps_Overlay_Collection_MarkerCollection -->
<g id="node22" class="node"><title>_NoiseLabs_ToolKit_GoogleAPI_Maps_Overlay_Collection_MarkerCollection</title>
<a xlink:href="db_NoiseLabs_ToolKit_GoogleAPI_Maps_Overlay_Collection_MarkerCollection.html" xlink:title="MarkerCollection" target="_parent">
<polygon fill="none" stroke="black" points="982,-924 858,-924 858,-888 982,-888 982,-924"/>
<text text-anchor="middle" x="920" y="-903.1" font-family="Courier New" font-size="11.00">MarkerCollection</text>
</a>
</g>
<!-- _NoiseLabs_ToolKit_GoogleAPI_Maps_Overlay_Collection_MarkerCollection&#45;&gt;_NoiseLabs_ToolKit_GoogleAPI_Maps_Overlay_Collection_OverlayCollection -->
<g id="edge58" class="edge"><title>_NoiseLabs_ToolKit_GoogleAPI_Maps_Overlay_Collection_MarkerCollection-&gt;_NoiseLabs_ToolKit_GoogleAPI_Maps_Overlay_Collection_OverlayCollection</title>
<path fill="none" stroke="black" d="M857.284,-906C831.252,-906 799.181,-906 765.144,-906"/>
<polygon fill="none" stroke="black" points="765.011,-902.5 755.011,-906 765.011,-909.5 765.011,-902.5"/>
</g>
<!-- _NoiseLabs_ToolKit_GoogleAPI_Maps_Overlay_Collection_OverlayCollectionFactory -->
<g id="node23" class="node"><title>_NoiseLabs_ToolKit_GoogleAPI_Maps_Overlay_Collection_OverlayCollectionFactory</title>
<a xlink:href="db_NoiseLabs_ToolKit_GoogleAPI_Maps_Overlay_Collection_OverlayCollectionFactory.html" xlink:title="OverlayCollectionFactory" target="_parent">
<polygon fill="none" stroke="black" points="1009,-870 831,-870 831,-834 1009,-834 1009,-870"/>
<text text-anchor="middle" x="920" y="-849.1" font-family="Courier New" font-size="11.00">OverlayCollectionFactory</text>
</a>
</g>
<!-- _NoiseLabs_ToolKit_GoogleAPI_Maps_Overlay_Icon -->
<g id="node24" class="node"><title>_NoiseLabs_ToolKit_GoogleAPI_Maps_Overlay_Icon</title>
<a xlink:href="db_NoiseLabs_ToolKit_GoogleAPI_Maps_Overlay_Icon.html" xlink:title="Icon" target="_parent">
<polygon fill="none" stroke="black" points="947,-1053 893,-1053 893,-1017 947,-1017 947,-1053"/>
<text text-anchor="middle" x="920" y="-1032.1" font-family="Courier New" font-size="11.00">Icon</text>
</a>
</g>
<!-- _NoiseLabs_ToolKit_GoogleAPI_Maps_Overlay_BaseOverlay -->
<g id="node30" class="node"><title>_NoiseLabs_ToolKit_GoogleAPI_Maps_Overlay_BaseOverlay</title>
<a xlink:href="db_NoiseLabs_ToolKit_GoogleAPI_Maps_Overlay_BaseOverlay.html" xlink:title="&lt;I&gt;_NoiseLabs_ToolKit_GoogleAPI_Maps_Overlay_BaseOverlay&lt;/I&gt;" target="_parent">
<polygon fill="none" stroke="black" points="697,-1188 323,-1188 323,-1152 697,-1152 697,-1188"/>
<text text-anchor="start" x="331" y="-1167.93" font-family="Courier New" font-size="11.00">_NoiseLabs_ToolKit_GoogleAPI_Maps_Overlay_BaseOverlay</text>
</a>
</g>
<!-- _NoiseLabs_ToolKit_GoogleAPI_Maps_Overlay_Icon&#45;&gt;_NoiseLabs_ToolKit_GoogleAPI_Maps_Overlay_BaseOverlay -->
<g id="edge46" class="edge"><title>_NoiseLabs_ToolKit_GoogleAPI_Maps_Overlay_Icon-&gt;_NoiseLabs_ToolKit_GoogleAPI_Maps_Overlay_BaseOverlay</title>
<path fill="none" stroke="black" d="M892.836,-1041.67C872.413,-1046.83 843.806,-1054.36 819,-1062 730.457,-1089.27 629.372,-1125.6 567.628,-1148.4"/>
<polygon fill="none" stroke="black" points="566.228,-1145.19 558.064,-1151.94 568.658,-1151.75 566.228,-1145.19"/>
</g>
<!-- _NoiseLabs_ToolKit_GoogleAPI_Maps_Overlay_InfoWindow -->
<g id="node25" class="node"><title>_NoiseLabs_ToolKit_GoogleAPI_Maps_Overlay_InfoWindow</title>
<a xlink:href="db_NoiseLabs_ToolKit_GoogleAPI_Maps_Overlay_InfoWindow.html" xlink:title="InfoWindow" target="_parent">
<polygon fill="none" stroke="black" points="962,-1323 878,-1323 878,-1287 962,-1287 962,-1323"/>
<text text-anchor="middle" x="920" y="-1302.1" font-family="Courier New" font-size="11.00">InfoWindow</text>
</a>
</g>
<!-- _NoiseLabs_ToolKit_GoogleAPI_Maps_Overlay_InfoWindow&#45;&gt;_NoiseLabs_ToolKit_GoogleAPI_Maps_Overlay_BaseOverlay -->
<g id="edge48" class="edge"><title>_NoiseLabs_ToolKit_GoogleAPI_Maps_Overlay_InfoWindow-&gt;_NoiseLabs_ToolKit_GoogleAPI_Maps_Overlay_BaseOverlay</title>
<path fill="none" stroke="black" d="M877.802,-1300.16C858.601,-1296.42 836.348,-1289.77 819,-1278 779.573,-1251.25 796.575,-1215.27 755,-1192 740.203,-1183.72 724.102,-1177.48 707.458,-1172.84"/>
<polygon fill="none" stroke="black" points="708.158,-1169.41 697.601,-1170.29 706.407,-1176.18 708.158,-1169.41"/>
</g>
<!-- _NoiseLabs_ToolKit_GoogleAPI_Maps_Overlay_Polyline -->
<g id="node26" class="node"><title>_NoiseLabs_ToolKit_GoogleAPI_Maps_Overlay_Polyline</title>
<a xlink:href="db_NoiseLabs_ToolKit_GoogleAPI_Maps_Overlay_Polyline.html" xlink:title="Polyline" target="_parent">
<polygon fill="none" stroke="black" points="955,-1269 885,-1269 885,-1233 955,-1233 955,-1269"/>
<text text-anchor="middle" x="920" y="-1248.1" font-family="Courier New" font-size="11.00">Polyline</text>
</a>
</g>
<!-- _NoiseLabs_ToolKit_GoogleAPI_Maps_Overlay_Polyline&#45;&gt;_NoiseLabs_ToolKit_GoogleAPI_Maps_Overlay_BaseOverlay -->
<g id="edge50" class="edge"><title>_NoiseLabs_ToolKit_GoogleAPI_Maps_Overlay_Polyline-&gt;_NoiseLabs_ToolKit_GoogleAPI_Maps_Overlay_BaseOverlay</title>
<path fill="none" stroke="black" d="M884.39,-1243.34C864.792,-1238.67 840.214,-1232.04 819,-1224 789.264,-1212.72 785.593,-1200.68 755,-1192 739.775,-1187.68 723.824,-1184.15 707.677,-1181.27"/>
<polygon fill="none" stroke="black" points="708.046,-1177.78 697.602,-1179.56 706.875,-1184.68 708.046,-1177.78"/>
</g>
<!-- _NoiseLabs_ToolKit_GoogleAPI_Maps_Overlay_Marker -->
<g id="node27" class="node"><title>_NoiseLabs_ToolKit_GoogleAPI_Maps_Overlay_Marker</title>
<a xlink:href="db_NoiseLabs_ToolKit_GoogleAPI_Maps_Overlay_Marker.html" xlink:title="Marker" target="_parent">
<polygon fill="none" stroke="black" points="948,-1215 892,-1215 892,-1179 948,-1179 948,-1215"/>
<text text-anchor="middle" x="920" y="-1194.1" font-family="Courier New" font-size="11.00">Marker</text>
</a>
</g>
<!-- _NoiseLabs_ToolKit_GoogleAPI_Maps_Overlay_Marker&#45;&gt;_NoiseLabs_ToolKit_GoogleAPI_Maps_Overlay_BaseOverlay -->
<g id="edge52" class="edge"><title>_NoiseLabs_ToolKit_GoogleAPI_Maps_Overlay_Marker-&gt;_NoiseLabs_ToolKit_GoogleAPI_Maps_Overlay_BaseOverlay</title>
<path fill="none" stroke="black" d="M891.495,-1195.12C852.644,-1192.56 779.653,-1187.76 707.836,-1183.03"/>
<polygon fill="none" stroke="black" points="707.922,-1179.53 697.714,-1182.36 707.462,-1186.51 707.922,-1179.53"/>
</g>
<!-- _NoiseLabs_ToolKit_GoogleAPI_Maps_Overlay_MarkerShape -->
<g id="node28" class="node"><title>_NoiseLabs_ToolKit_GoogleAPI_Maps_Overlay_MarkerShape</title>
<a xlink:href="db_NoiseLabs_ToolKit_GoogleAPI_Maps_Overlay_MarkerShape.html" xlink:title="MarkerShape" target="_parent">
<polygon fill="none" stroke="black" points="965,-1161 875,-1161 875,-1125 965,-1125 965,-1161"/>
<text text-anchor="middle" x="920" y="-1140.1" font-family="Courier New" font-size="11.00">MarkerShape</text>
</a>
</g>
<!-- _NoiseLabs_ToolKit_GoogleAPI_Maps_Overlay_MarkerShape&#45;&gt;_NoiseLabs_ToolKit_GoogleAPI_Maps_Overlay_BaseOverlay -->
<g id="edge60" class="edge"><title>_NoiseLabs_ToolKit_GoogleAPI_Maps_Overlay_MarkerShape-&gt;_NoiseLabs_ToolKit_GoogleAPI_Maps_Overlay_BaseOverlay</title>
<path fill="none" stroke="black" d="M874.161,-1146.02C833.103,-1148.72 769.926,-1152.88 707.654,-1156.98"/>
<polygon fill="none" stroke="black" points="707.419,-1153.49 697.671,-1157.64 707.879,-1160.48 707.419,-1153.49"/>
</g>
<!-- _NoiseLabs_ToolKit_GoogleAPI_Maps_Overlay_MarkerImage -->
<g id="node29" class="node"><title>_NoiseLabs_ToolKit_GoogleAPI_Maps_Overlay_MarkerImage</title>
<a xlink:href="db_NoiseLabs_ToolKit_GoogleAPI_Maps_Overlay_MarkerImage.html" xlink:title="MarkerImage" target="_parent">
<polygon fill="none" stroke="black" points="965,-1107 875,-1107 875,-1071 965,-1071 965,-1107"/>
<text text-anchor="middle" x="920" y="-1086.1" font-family="Courier New" font-size="11.00">MarkerImage</text>
</a>
</g>
<!-- _NoiseLabs_ToolKit_GoogleAPI_Maps_Overlay_MarkerImage&#45;&gt;_NoiseLabs_ToolKit_GoogleAPI_Maps_Overlay_BaseOverlay -->
<g id="edge62" class="edge"><title>_NoiseLabs_ToolKit_GoogleAPI_Maps_Overlay_MarkerImage-&gt;_NoiseLabs_ToolKit_GoogleAPI_Maps_Overlay_BaseOverlay</title>
<path fill="none" stroke="black" d="M874.161,-1098.06C810.946,-1110.54 695.298,-1133.39 611.248,-1150"/>
<polygon fill="none" stroke="black" points="610.551,-1146.57 601.419,-1151.94 611.907,-1153.43 610.551,-1146.57"/>
</g>
<!-- _NoiseLabs_ToolKit_GoogleAPI_Maps_Overlay_OverlayInterface -->
<g id="node31" class="node"><title>_NoiseLabs_ToolKit_GoogleAPI_Maps_Overlay_OverlayInterface</title>
<a xlink:href="db_NoiseLabs_ToolKit_GoogleAPI_Maps_Overlay_OverlayInterface.html" xlink:title="OverlayInterface" target="_parent">
<polygon fill="none" stroke="black" points="173,-1188 49,-1188 49,-1152 173,-1152 173,-1188"/>
<text text-anchor="middle" x="111" y="-1167.1" font-family="Courier New" font-size="11.00">OverlayInterface</text>
</a>
</g>
<!-- _NoiseLabs_ToolKit_GoogleAPI_Maps_Overlay_BaseOverlay&#45;&gt;_NoiseLabs_ToolKit_GoogleAPI_Maps_Overlay_OverlayInterface -->
<g id="edge78" class="edge"><title>_NoiseLabs_ToolKit_GoogleAPI_Maps_Overlay_BaseOverlay-&gt;_NoiseLabs_ToolKit_GoogleAPI_Maps_Overlay_OverlayInterface</title>
<path fill="none" stroke="black" stroke-dasharray="1,5" d="M322.475,-1170C273.263,-1170 223.076,-1170 183.95,-1170"/>
<polygon fill="none" stroke="black" points="183.734,-1166.5 173.734,-1170 183.734,-1173.5 183.734,-1166.5"/>
</g>
<!-- _NoiseLabs_ToolKit_GoogleAPI_Maps_Map -->
<g id="node33" class="node"><title>_NoiseLabs_ToolKit_GoogleAPI_Maps_Map</title>
<a xlink:href="db_NoiseLabs_ToolKit_GoogleAPI_Maps_Map.html" xlink:title="Map" target="_parent">
<polygon fill="none" stroke="black" points="947,-1506 893,-1506 893,-1470 947,-1470 947,-1506"/>
<text text-anchor="middle" x="920" y="-1485.1" font-family="Courier New" font-size="11.00">Map</text>
</a>
</g>
<!-- _NoiseLabs_ToolKit_GoogleAPI_Maps_BaseMap -->
<g id="node35" class="node"><title>_NoiseLabs_ToolKit_GoogleAPI_Maps_BaseMap</title>
<a xlink:href="db_NoiseLabs_ToolKit_GoogleAPI_Maps_BaseMap.html" xlink:title="&lt;I&gt;_NoiseLabs_ToolKit_GoogleAPI_Maps_BaseMap&lt;/I&gt;" target="_parent">
<polygon fill="none" stroke="black" points="657,-1479 363,-1479 363,-1443 657,-1443 657,-1479"/>
<text text-anchor="start" x="371.5" y="-1458.93" font-family="Courier New" font-size="11.00">_NoiseLabs_ToolKit_GoogleAPI_Maps_BaseMap</text>
</a>
</g>
<!-- _NoiseLabs_ToolKit_GoogleAPI_Maps_Map&#45;&gt;_NoiseLabs_ToolKit_GoogleAPI_Maps_BaseMap -->
<g id="edge42" class="edge"><title>_NoiseLabs_ToolKit_GoogleAPI_Maps_Map-&gt;_NoiseLabs_ToolKit_GoogleAPI_Maps_BaseMap</title>
<path fill="none" stroke="black" d="M892.781,-1486.21C847.065,-1483.2 751.592,-1476.91 667.437,-1471.37"/>
<polygon fill="none" stroke="black" points="667.443,-1467.86 657.234,-1470.7 666.983,-1474.85 667.443,-1467.86"/>
</g>
<!-- _NoiseLabs_ToolKit_GoogleAPI_Maps_Geolocation -->
<g id="node34" class="node"><title>_NoiseLabs_ToolKit_GoogleAPI_Maps_Geolocation</title>
<a xlink:href="db_NoiseLabs_ToolKit_GoogleAPI_Maps_Geolocation.html" xlink:title="Geolocation" target="_parent">
<polygon fill="none" stroke="black" points="965,-1398 875,-1398 875,-1362 965,-1362 965,-1398"/>
<text text-anchor="middle" x="920" y="-1377.1" font-family="Courier New" font-size="11.00">Geolocation</text>
</a>
</g>
<!-- _NoiseLabs_ToolKit_GoogleAPI_Maps_MapInterface -->
<g id="node37" class="node"><title>_NoiseLabs_ToolKit_GoogleAPI_Maps_MapInterface</title>
<a xlink:href="db_NoiseLabs_ToolKit_GoogleAPI_Maps_MapInterface.html" xlink:title="MapInterface" target="_parent">
<polygon fill="none" stroke="black" points="160,-1479 62,-1479 62,-1443 160,-1443 160,-1479"/>
<text text-anchor="middle" x="111" y="-1458.1" font-family="Courier New" font-size="11.00">MapInterface</text>
</a>
</g>
<!-- _NoiseLabs_ToolKit_GoogleAPI_Maps_BaseMap&#45;&gt;_NoiseLabs_ToolKit_GoogleAPI_Maps_MapInterface -->
<g id="edge76" class="edge"><title>_NoiseLabs_ToolKit_GoogleAPI_Maps_BaseMap-&gt;_NoiseLabs_ToolKit_GoogleAPI_Maps_MapInterface</title>
<path fill="none" stroke="black" stroke-dasharray="1,5" d="M362.844,-1461C296.146,-1461 221.047,-1461 170.35,-1461"/>
<polygon fill="none" stroke="black" points="170.23,-1457.5 160.23,-1461 170.23,-1464.5 170.23,-1457.5"/>
</g>
<!-- _NoiseLabs_ToolKit_GoogleAPI_Maps_StaticMap -->
<g id="node36" class="node"><title>_NoiseLabs_ToolKit_GoogleAPI_Maps_StaticMap</title>
<a xlink:href="db_NoiseLabs_ToolKit_GoogleAPI_Maps_StaticMap.html" xlink:title="StaticMap" target="_parent">
<polygon fill="none" stroke="black" points="958,-1452 882,-1452 882,-1416 958,-1416 958,-1452"/>
<text text-anchor="middle" x="920" y="-1431.1" font-family="Courier New" font-size="11.00">StaticMap</text>
</a>
</g>
<!-- _NoiseLabs_ToolKit_GoogleAPI_Maps_StaticMap&#45;&gt;_NoiseLabs_ToolKit_GoogleAPI_Maps_BaseMap -->
<g id="edge44" class="edge"><title>_NoiseLabs_ToolKit_GoogleAPI_Maps_StaticMap-&gt;_NoiseLabs_ToolKit_GoogleAPI_Maps_BaseMap</title>
<path fill="none" stroke="black" d="M881.428,-1436.54C832.589,-1439.76 745.442,-1445.5 667.832,-1450.61"/>
<polygon fill="none" stroke="black" points="667.189,-1447.14 657.44,-1451.29 667.649,-1454.13 667.189,-1447.14"/>
</g>
<!-- _NoiseLabs_ToolKit_GoogleAPI_GoogleMap -->
<g id="node41" class="node"><title>_NoiseLabs_ToolKit_GoogleAPI_GoogleMap</title>
<a xlink:href="db_NoiseLabs_ToolKit_GoogleAPI_GoogleMap.html" xlink:title="GoogleMap" target="_parent">
<polygon fill="none" stroke="black" points="958,-802 882,-802 882,-766 958,-766 958,-802"/>
<text text-anchor="middle" x="920" y="-781.1" font-family="Courier New" font-size="11.00">GoogleMap</text>
</a>
</g>
<!-- _NoiseLabs_ToolKit_GoogleAPI_ParameterBag -->
<g id="node42" class="node"><title>_NoiseLabs_ToolKit_GoogleAPI_ParameterBag</title>
<a xlink:href="db_NoiseLabs_ToolKit_GoogleAPI_ParameterBag.html" xlink:title="ParameterBag" target="_parent">
<polygon fill="none" stroke="black" points="969,-748 871,-748 871,-712 969,-712 969,-748"/>
<text text-anchor="middle" x="920" y="-727.1" font-family="Courier New" font-size="11.00">ParameterBag</text>
</a>
</g>
<!-- _NoiseLabs_ToolKit_Runner_ProcessManager -->
<g id="node51" class="node"><title>_NoiseLabs_ToolKit_Runner_ProcessManager</title>
<a xlink:href="db_NoiseLabs_ToolKit_Runner_ProcessManager.html" xlink:title="ProcessManager" target="_parent">
<polygon fill="none" stroke="black" points="975,-1728 865,-1728 865,-1692 975,-1692 975,-1728"/>
<text text-anchor="middle" x="920" y="-1707.1" font-family="Courier New" font-size="11.00">ProcessManager</text>
</a>
</g>
<!-- _NoiseLabs_ToolKit_Runner_ProcessManagerInterface -->
<g id="node54" class="node"><title>_NoiseLabs_ToolKit_Runner_ProcessManagerInterface</title>
<a xlink:href="db_NoiseLabs_ToolKit_Runner_ProcessManagerInterface.html" xlink:title="ProcessManagerInterface" target="_parent">
<polygon fill="none" stroke="black" points="596,-1701 424,-1701 424,-1665 596,-1665 596,-1701"/>
<text text-anchor="middle" x="510" y="-1680.1" font-family="Courier New" font-size="11.00">ProcessManagerInterface</text>
</a>
</g>
<!-- _NoiseLabs_ToolKit_Runner_ProcessManager&#45;&gt;_NoiseLabs_ToolKit_Runner_ProcessManagerInterface -->
<g id="edge90" class="edge"><title>_NoiseLabs_ToolKit_Runner_ProcessManager-&gt;_NoiseLabs_ToolKit_Runner_ProcessManagerInterface</title>
<path fill="none" stroke="black" stroke-dasharray="1,5" d="M864.279,-1706.33C798.139,-1701.98 686.72,-1694.64 606.474,-1689.35"/>
<polygon fill="none" stroke="black" points="606.563,-1685.85 596.355,-1688.69 606.103,-1692.84 606.563,-1685.85"/>
</g>
<!-- _NoiseLabs_ToolKit_Runner_ParameterBag -->
<g id="node52" class="node"><title>_NoiseLabs_ToolKit_Runner_ParameterBag</title>
<a xlink:href="db_NoiseLabs_ToolKit_Runner_ParameterBag.html" xlink:title="ParameterBag" target="_parent">
<polygon fill="none" stroke="black" points="969,-1674 871,-1674 871,-1638 969,-1638 969,-1674"/>
<text text-anchor="middle" x="920" y="-1653.1" font-family="Courier New" font-size="11.00">ParameterBag</text>
</a>
</g>
<!-- _NoiseLabs_ToolKit_Runner_ProcessInterface -->
<g id="node53" class="node"><title>_NoiseLabs_ToolKit_Runner_ProcessInterface</title>
<a xlink:href="db_NoiseLabs_ToolKit_Runner_ProcessInterface.html" xlink:title="ProcessInterface" target="_parent">
<polygon fill="none" stroke="black" points="572,-1620 448,-1620 448,-1584 572,-1584 572,-1620"/>
<text text-anchor="middle" x="510" y="-1599.1" font-family="Courier New" font-size="11.00">ProcessInterface</text>
</a>
</g>
<!-- _NoiseLabs_ToolKit_Runner_ProcessManagerInterface&#45;&gt;_ArrayAccess -->
<g id="edge74" class="edge"><title>_NoiseLabs_ToolKit_Runner_ProcessManagerInterface-&gt;_ArrayAccess</title>
<path fill="none" stroke="black" d="M423.716,-1688.86C367.661,-1687.58 297.695,-1675.45 257,-1629 197.143,-1560.68 202.448,-904.342 193,-814 168.832,-582.912 128.578,-305.367 115.355,-216.131"/>
<polygon fill="none" stroke="black" points="118.811,-215.575 113.879,-206.198 111.887,-216.604 118.811,-215.575"/>
</g>
<!-- _NoiseLabs_ToolKit_Runner_Process -->
<g id="node55" class="node"><title>_NoiseLabs_ToolKit_Runner_Process</title>
<a xlink:href="db_NoiseLabs_ToolKit_Runner_Process.html" xlink:title="Process" target="_parent">
<polygon fill="none" stroke="black" points="952,-1620 888,-1620 888,-1584 952,-1584 952,-1620"/>
<text text-anchor="middle" x="920" y="-1599.1" font-family="Courier New" font-size="11.00">Process</text>
</a>
</g>
<!-- _NoiseLabs_ToolKit_Runner_Process&#45;&gt;_NoiseLabs_ToolKit_Runner_ProcessInterface -->
<g id="edge92" class="edge"><title>_NoiseLabs_ToolKit_Runner_Process-&gt;_NoiseLabs_ToolKit_Runner_ProcessInterface</title>
<path fill="none" stroke="black" stroke-dasharray="1,5" d="M887.828,-1602C822.481,-1602 672.79,-1602 582.673,-1602"/>
<polygon fill="none" stroke="black" points="582.528,-1598.5 572.528,-1602 582.528,-1605.5 582.528,-1598.5"/>
</g>
<!-- _NoiseLabs_ToolKit_Helper -->
<g id="node56" class="node"><title>_NoiseLabs_ToolKit_Helper</title>
<a xlink:href="db_NoiseLabs_ToolKit_Helper.html" xlink:title="Helper" target="_parent">
<polygon fill="none" stroke="black" points="948,-266 892,-266 892,-230 948,-230 948,-266"/>
<text text-anchor="middle" x="920" y="-245.1" font-family="Courier New" font-size="11.00">Helper</text>
</a>
</g>
</g>
<script xlink:href="js/SVGPan.js"/></svg>
