<?xml version="1.0" encoding="UTF-8" standalone="no"?>
<!DOCTYPE svg PUBLIC "-//W3C//DTD SVG 1.1//EN" "http://www.w3.org/Graphics/SVG/1.1/DTD/svg11.dtd">
<!-- Generated by graphviz version 2.26.3 (20100126.1600)
 -->
<!-- Title: Classes Pages: 1 -->
<svg xmlns="http://www.w3.org/2000/svg" xmlns:xlink="http://www.w3.org/1999/xlink" width="940pt" height="847pt">
<g id="viewport" class="graph" transform="scale(1 1) rotate(0) translate(4 842.8)">
<title>Classes</title>
<polygon fill="white" stroke="white" points="-4,5 -4,-842.8 937,-842.8 937,5 -4,5"/>
<!-- 09a15e9660c1ebc6f429d818825ce0c6 -->
<g id="node1" class="node"><title>09a15e9660c1ebc6f429d818825ce0c6</title>
<polygon fill="white" stroke="black" points="75,-470.074 1,-470.074 1,-434.074 75,-434.074 75,-470.074"/>
<text text-anchor="middle" x="38" y="-447.474" font-family="Times Roman,serif" font-size="14.00" fill="gray">stdClass</text>
</g>
<!-- a31b01ba9b7d2bcd7aba41f0b98a2f14 -->
<g id="node2" class="node"><title>a31b01ba9b7d2bcd7aba41f0b98a2f14</title>
<a xlink:href="_ConfigParser_NoSectionsConfigParserInterface.html" xlink:title="NoSectionsConfigParserInterface" target="_top">
<polygon fill="white" stroke="black" points="395,-835.074 151,-835.074 151,-799.074 395,-799.074 395,-835.074"/>
<text text-anchor="middle" x="273" y="-812.474" font-family="Times Roman,serif" font-size="14.00">NoSectionsConfigParserInterface</text>
</a>
</g>
<!-- a31b01ba9b7d2bcd7aba41f0b98a2f14&#45;&gt;09a15e9660c1ebc6f429d818825ce0c6 -->
<g id="edge2" class="edge"><title>a31b01ba9b7d2bcd7aba41f0b98a2f14-&gt;09a15e9660c1ebc6f429d818825ce0c6</title>
<path fill="none" stroke="black" d="M178.135,-799.05C167.394,-793.541 157.599,-786.378 150,-777.074 104.019,-720.776 185.689,-452.168 113,-452.074"/>
</g>
<!-- 6ae93a1b3f2eca52ed88cc84c455afe4 -->
<g id="node3" class="node"><title>6ae93a1b3f2eca52ed88cc84c455afe4</title>
<a xlink:href="_ConfigParser_ParameterBag.html" xlink:title="ParameterBag" target="_top">
<polygon fill="white" stroke="black" points="331,-768.074 215,-768.074 215,-732.074 331,-732.074 331,-768.074"/>
<text text-anchor="middle" x="273" y="-745.474" font-family="Times Roman,serif" font-size="14.00">ParameterBag</text>
</a>
</g>
<!-- 6ae93a1b3f2eca52ed88cc84c455afe4&#45;&gt;09a15e9660c1ebc6f429d818825ce0c6 -->
<g id="edge4" class="edge"><title>6ae93a1b3f2eca52ed88cc84c455afe4-&gt;09a15e9660c1ebc6f429d818825ce0c6</title>
<path fill="none" stroke="black" d="M214.472,-744.904C191.105,-739.81 166,-729.962 150,-711.074 112.42,-666.712 171.14,-452.149 113,-452.074"/>
</g>
<!-- 13d0035943be7c3d3bc40add2078dd9a -->
<g id="node4" class="node"><title>13d0035943be7c3d3bc40add2078dd9a</title>
<a xlink:href="_ConfigParser_BaseConfigParser.html" xlink:title="BaseConfigParser" target="_top">
<polygon fill="white" stroke="black" points="342,-702.074 204,-702.074 204,-666.074 342,-666.074 342,-702.074"/>
<text text-anchor="middle" x="273" y="-679.474" font-family="Times Roman,serif" font-size="14.00">BaseConfigParser</text>
</a>
</g>
<!-- 13d0035943be7c3d3bc40add2078dd9a&#45;&gt;09a15e9660c1ebc6f429d818825ce0c6 -->
<g id="edge6" class="edge"><title>13d0035943be7c3d3bc40add2078dd9a-&gt;09a15e9660c1ebc6f429d818825ce0c6</title>
<path fill="none" stroke="black" d="M203.416,-675.623C183.642,-669.95 163.766,-660.562 150,-645.074 91.9786,-579.792 200.34,-452.187 113,-452.074"/>
</g>
<!-- 2bb0da7d83de629d21acf7b287691be7 -->
<g id="node5" class="node"><title>2bb0da7d83de629d21acf7b287691be7</title>
<a xlink:href="_ConfigParser_ConfigParser.html" xlink:title="ConfigParser" target="_top">
<polygon fill="white" stroke="black" points="614,-702.074 510,-702.074 510,-666.074 614,-666.074 614,-702.074"/>
<text text-anchor="middle" x="562" y="-679.474" font-family="Times Roman,serif" font-size="14.00">ConfigParser</text>
</a>
</g>
<!-- 2bb0da7d83de629d21acf7b287691be7&#45;&gt;13d0035943be7c3d3bc40add2078dd9a -->
<g id="edge8" class="edge"><title>2bb0da7d83de629d21acf7b287691be7-&gt;13d0035943be7c3d3bc40add2078dd9a</title>
<path fill="none" stroke="black" d="M509.406,-681.107C485.937,-680.546 457.998,-680.927 433,-684.074"/>
</g>
<!-- e37df644c690bcd7bb6b51cef72cd7c0 -->
<g id="node6" class="node"><title>e37df644c690bcd7bb6b51cef72cd7c0</title>
<a xlink:href="_ConfigParser_NoSectionsConfigParser.html" xlink:title="NoSectionsConfigParser" target="_top">
<polygon fill="white" stroke="black" points="653,-636.074 471,-636.074 471,-600.074 653,-600.074 653,-636.074"/>
<text text-anchor="middle" x="562" y="-613.474" font-family="Times Roman,serif" font-size="14.00">NoSectionsConfigParser</text>
</a>
</g>
<!-- e37df644c690bcd7bb6b51cef72cd7c0&#45;&gt;13d0035943be7c3d3bc40add2078dd9a -->
<g id="edge10" class="edge"><title>e37df644c690bcd7bb6b51cef72cd7c0-&gt;13d0035943be7c3d3bc40add2078dd9a</title>
<path fill="none" stroke="black" d="M513.726,-636.091C499.329,-642.111 483.734,-649.289 470,-657.074 452.29,-667.112 453.198,-681.531 433,-684.074"/>
<path fill="none" stroke="black" d="M433,-684.074C406.966,-687.351 378.361,-688.209 352.625,-687.988"/>
<polygon fill="none" stroke="black" points="352.59,-684.488 342.541,-687.846 352.491,-691.487 352.59,-684.488"/>
</g>
<!-- 74fc8d88a32d56a787cbf022e5bed4d6 -->
<g id="node7" class="node"><title>74fc8d88a32d56a787cbf022e5bed4d6</title>
<a xlink:href="_ConfigParser_ConfigParserInterface.html" xlink:title="ConfigParserInterface" target="_top">
<polygon fill="white" stroke="black" points="357,-636.074 189,-636.074 189,-600.074 357,-600.074 357,-636.074"/>
<text text-anchor="middle" x="273" y="-613.474" font-family="Times Roman,serif" font-size="14.00">ConfigParserInterface</text>
</a>
</g>
<!-- 74fc8d88a32d56a787cbf022e5bed4d6&#45;&gt;09a15e9660c1ebc6f429d818825ce0c6 -->
<g id="edge12" class="edge"><title>74fc8d88a32d56a787cbf022e5bed4d6-&gt;09a15e9660c1ebc6f429d818825ce0c6</title>
<path fill="none" stroke="black" d="M188.962,-603.623C174.513,-597.947 160.722,-590.051 150,-579.074 108.921,-537.015 171.791,-452.15 113,-452.074"/>
</g>
<!-- f0510148ffedacc884fa211f1ae49898 -->
<g id="node8" class="node"><title>f0510148ffedacc884fa211f1ae49898</title>
<a xlink:href="_ConfigParser_File.html" xlink:title="File" target="_top">
<polygon fill="white" stroke="black" points="300,-570.074 246,-570.074 246,-534.074 300,-534.074 300,-570.074"/>
<text text-anchor="middle" x="273" y="-547.474" font-family="Times Roman,serif" font-size="14.00">File</text>
</a>
</g>
<!-- f0510148ffedacc884fa211f1ae49898&#45;&gt;09a15e9660c1ebc6f429d818825ce0c6 -->
<g id="edge14" class="edge"><title>f0510148ffedacc884fa211f1ae49898-&gt;09a15e9660c1ebc6f429d818825ce0c6</title>
<path fill="none" stroke="black" d="M245.969,-549.08C219.179,-544.924 178.177,-535.228 150,-513.074 125.074,-493.475 144.709,-452.115 113,-452.074"/>
</g>
<!-- 9ed35f00accb6182f4635a57e8511f8c -->
<g id="node9" class="node"><title>9ed35f00accb6182f4635a57e8511f8c</title>
<a xlink:href="_Google_Maps_BaseMap.html" xlink:title="BaseMap" target="_top">
<polygon fill="white" stroke="black" points="313,-504.074 233,-504.074 233,-468.074 313,-468.074 313,-504.074"/>
<text text-anchor="middle" x="273" y="-481.474" font-family="Times Roman,serif" font-size="14.00">BaseMap</text>
</a>
</g>
<!-- 9ed35f00accb6182f4635a57e8511f8c&#45;&gt;09a15e9660c1ebc6f429d818825ce0c6 -->
<g id="edge16" class="edge"><title>9ed35f00accb6182f4635a57e8511f8c-&gt;09a15e9660c1ebc6f429d818825ce0c6</title>
<path fill="none" stroke="black" d="M232.729,-472.666C200.672,-463.179 154.461,-452.128 113,-452.074"/>
</g>
<!-- 2592dca3ccd3d4c78bfcd5dae3083516 -->
<g id="node10" class="node"><title>2592dca3ccd3d4c78bfcd5dae3083516</title>
<a xlink:href="_Google_Maps_Map.html" xlink:title="Map" target="_top">
<polygon fill="white" stroke="black" points="589,-504.074 535,-504.074 535,-468.074 589,-468.074 589,-504.074"/>
<text text-anchor="middle" x="562" y="-481.474" font-family="Times Roman,serif" font-size="14.00">Map</text>
</a>
</g>
<!-- 2592dca3ccd3d4c78bfcd5dae3083516&#45;&gt;9ed35f00accb6182f4635a57e8511f8c -->
<g id="edge18" class="edge"><title>2592dca3ccd3d4c78bfcd5dae3083516-&gt;9ed35f00accb6182f4635a57e8511f8c</title>
<path fill="none" stroke="black" d="M534.693,-484.075C508.495,-482.628 467.878,-481.619 433,-486.074"/>
</g>
<!-- c7303f6af5d1517e456a9ee730c80b2b -->
<g id="node11" class="node"><title>c7303f6af5d1517e456a9ee730c80b2b</title>
<a xlink:href="_Google_Maps_StaticMap.html" xlink:title="StaticMap" target="_top">
<polygon fill="white" stroke="black" points="605,-437.074 519,-437.074 519,-401.074 605,-401.074 605,-437.074"/>
<text text-anchor="middle" x="562" y="-414.474" font-family="Times Roman,serif" font-size="14.00">StaticMap</text>
</a>
</g>
<!-- c7303f6af5d1517e456a9ee730c80b2b&#45;&gt;9ed35f00accb6182f4635a57e8511f8c -->
<g id="edge20" class="edge"><title>c7303f6af5d1517e456a9ee730c80b2b-&gt;9ed35f00accb6182f4635a57e8511f8c</title>
<path fill="none" stroke="black" d="M518.912,-435.496C503.151,-442.099 485.414,-450.243 470,-459.074 452.336,-469.193 453.193,-483.494 433,-486.074"/>
<path fill="none" stroke="black" d="M433,-486.074C396.609,-490.722 355.182,-490.574 323.601,-489.342"/>
<polygon fill="none" stroke="black" points="323.434,-485.831 313.289,-488.887 323.126,-492.824 323.434,-485.831"/>
</g>
<!-- 7aa8004f00f0f9f1297715fdde9fdc60 -->
<g id="node12" class="node"><title>7aa8004f00f0f9f1297715fdde9fdc60</title>
<a xlink:href="_Google_Maps_Marker.html" xlink:title="Marker" target="_top">
<polygon fill="white" stroke="black" points="305,-437.074 241,-437.074 241,-401.074 305,-401.074 305,-437.074"/>
<text text-anchor="middle" x="273" y="-414.474" font-family="Times Roman,serif" font-size="14.00">Marker</text>
</a>
</g>
<!-- 7aa8004f00f0f9f1297715fdde9fdc60&#45;&gt;09a15e9660c1ebc6f429d818825ce0c6 -->
<g id="edge22" class="edge"><title>7aa8004f00f0f9f1297715fdde9fdc60-&gt;09a15e9660c1ebc6f429d818825ce0c6</title>
<path fill="none" stroke="black" d="M240.311,-429.905C208.257,-439.548 157.813,-452.132 113,-452.074"/>
</g>
<!-- 6094164c9df0a4ff4c333d3612b62efc -->
<g id="node13" class="node"><title>6094164c9df0a4ff4c333d3612b62efc</title>
<a xlink:href="_Google_Maps_MapInterface.html" xlink:title="MapInterface" target="_top">
<polygon fill="white" stroke="black" points="327,-371.074 219,-371.074 219,-335.074 327,-335.074 327,-371.074"/>
<text text-anchor="middle" x="273" y="-348.474" font-family="Times Roman,serif" font-size="14.00">MapInterface</text>
</a>
</g>
<!-- 6094164c9df0a4ff4c333d3612b62efc&#45;&gt;09a15e9660c1ebc6f429d818825ce0c6 -->
<g id="edge24" class="edge"><title>6094164c9df0a4ff4c333d3612b62efc-&gt;09a15e9660c1ebc6f429d818825ce0c6</title>
<path fill="none" stroke="black" d="M218.496,-361.636C195.564,-367.328 169.692,-376.707 150,-392.074 125.301,-411.347 144.329,-452.114 113,-452.074"/>
</g>
<!-- f252415517c35cc5d29828a1de37036c -->
<g id="node14" class="node"><title>f252415517c35cc5d29828a1de37036c</title>
<a xlink:href="_Google_GoogleMap.html" xlink:title="GoogleMap" target="_top">
<polygon fill="white" stroke="black" points="320,-305.074 226,-305.074 226,-269.074 320,-269.074 320,-305.074"/>
<text text-anchor="middle" x="273" y="-282.474" font-family="Times Roman,serif" font-size="14.00">GoogleMap</text>
</a>
</g>
<!-- f252415517c35cc5d29828a1de37036c&#45;&gt;09a15e9660c1ebc6f429d818825ce0c6 -->
<g id="edge26" class="edge"><title>f252415517c35cc5d29828a1de37036c-&gt;09a15e9660c1ebc6f429d818825ce0c6</title>
<path fill="none" stroke="black" d="M225.333,-291.425C199.849,-296.139 169.744,-305.902 150,-326.074 109.174,-367.783 171.364,-452.15 113,-452.074"/>
</g>
<!-- a80f5c5fbed68ed3978c252c8e375e50 -->
<g id="node15" class="node"><title>a80f5c5fbed68ed3978c252c8e375e50</title>
<a xlink:href="_Google_ParameterBag.html" xlink:title="ParameterBag" target="_top">
<polygon fill="white" stroke="black" points="331,-239.074 215,-239.074 215,-203.074 331,-203.074 331,-239.074"/>
<text text-anchor="middle" x="273" y="-216.474" font-family="Times Roman,serif" font-size="14.00">ParameterBag</text>
</a>
</g>
<!-- a80f5c5fbed68ed3978c252c8e375e50&#45;&gt;09a15e9660c1ebc6f429d818825ce0c6 -->
<g id="edge28" class="edge"><title>a80f5c5fbed68ed3978c252c8e375e50-&gt;09a15e9660c1ebc6f429d818825ce0c6</title>
<path fill="none" stroke="black" d="M214.279,-226.766C191.165,-231.962 166.305,-241.747 150,-260.074 92.2372,-325.002 199.903,-452.187 113,-452.074"/>
</g>
<!-- 08721dd89eb5dda35fb46d99bdd7b97c -->
<g id="node16" class="node"><title>08721dd89eb5dda35fb46d99bdd7b97c</title>
<a xlink:href="_Helper.html" xlink:title="Helper" target="_top">
<polygon fill="white" stroke="black" points="304,-172.074 242,-172.074 242,-136.074 304,-136.074 304,-172.074"/>
<text text-anchor="middle" x="273" y="-149.474" font-family="Times Roman,serif" font-size="14.00">Helper</text>
</a>
</g>
<!-- 08721dd89eb5dda35fb46d99bdd7b97c&#45;&gt;09a15e9660c1ebc6f429d818825ce0c6 -->
<g id="edge30" class="edge"><title>08721dd89eb5dda35fb46d99bdd7b97c-&gt;09a15e9660c1ebc6f429d818825ce0c6</title>
<path fill="none" stroke="black" d="M241.407,-155.374C213.032,-158.336 172.479,-167.354 150,-194.074 112.713,-238.395 170.92,-452.149 113,-452.074"/>
</g>
<!-- d1457b72c3fb323a2671125aef3eab5d -->
<g id="node17" class="node"><title>d1457b72c3fb323a2671125aef3eab5d</title>
<polygon fill="white" stroke="black" points="300,-106.074 246,-106.074 246,-70.0737 300,-70.0737 300,-106.074"/>
<text text-anchor="middle" x="273" y="-83.4737" font-family="Times Roman,serif" font-size="14.00" fill="gray">?</text>
</g>
<!-- d1457b72c3fb323a2671125aef3eab5d&#45;&gt;09a15e9660c1ebc6f429d818825ce0c6 -->
<g id="edge32" class="edge"><title>d1457b72c3fb323a2671125aef3eab5d-&gt;09a15e9660c1ebc6f429d818825ce0c6</title>
<path fill="none" stroke="black" d="M245.806,-88.5726C217.258,-90.6781 173.345,-98.705 150,-127.074 103.812,-183.201 185.689,-452.168 113,-452.074"/>
<path fill="none" stroke="black" d="M113,-452.074C104.202,-452.062 94.823,-452.057 85.7831,-452.055"/>
<polygon fill="none" stroke="black" points="85.77,-448.555 75.7697,-452.055 85.7695,-455.555 85.77,-448.555"/>
</g>
<!-- 59852f5f5aeb9baac5559e683c18c585 -->
<g id="node18" class="node"><title>59852f5f5aeb9baac5559e683c18c585</title>
<polygon fill="white" stroke="black" points="634,-106.074 490,-106.074 490,-70.0737 634,-70.0737 634,-106.074"/>
<text text-anchor="middle" x="562" y="-83.4737" font-family="Times Roman,serif" font-size="14.00" fill="gray">RuntimeException</text>
</g>
<!-- 59852f5f5aeb9baac5559e683c18c585&#45;&gt;d1457b72c3fb323a2671125aef3eab5d -->
<g id="edge34" class="edge"><title>59852f5f5aeb9baac5559e683c18c585-&gt;d1457b72c3fb323a2671125aef3eab5d</title>
<path fill="none" stroke="black" d="M489.819,-88.0737C432.86,-88.0737 355.703,-88.0737 310.447,-88.0737"/>
<polygon fill="none" stroke="black" points="310.205,-84.5738 300.205,-88.0737 310.205,-91.5738 310.205,-84.5738"/>
</g>
<!-- 1b39345f1de27ed289d20db22b5860f6 -->
<g id="node19" class="node"><title>1b39345f1de27ed289d20db22b5860f6</title>
<a xlink:href="_ConfigParser_Exception_NoSectionException.html" xlink:title="NoSectionException" target="_top">
<polygon fill="white" stroke="black" points="908,-172.074 752,-172.074 752,-136.074 908,-136.074 908,-172.074"/>
<text text-anchor="middle" x="830" y="-149.474" font-family="Times Roman,serif" font-size="14.00">NoSectionException</text>
</a>
</g>
<!-- 1b39345f1de27ed289d20db22b5860f6&#45;&gt;59852f5f5aeb9baac5559e683c18c585 -->
<g id="edge36" class="edge"><title>1b39345f1de27ed289d20db22b5860f6-&gt;59852f5f5aeb9baac5559e683c18c585</title>
<path fill="none" stroke="black" d="M774.811,-136.023C759.292,-130.138 742.659,-123.04 728,-115.074 710.113,-105.353 711.357,-88.0737 691,-88.0737"/>
</g>
<!-- 8cb1e1ea972eac5d2b34288174018ff0 -->
<g id="node20" class="node"><title>8cb1e1ea972eac5d2b34288174018ff0</title>
<a xlink:href="_ConfigParser_Exception_NoOptionException.html" xlink:title="NoOptionException" target="_top">
<polygon fill="white" stroke="black" points="905,-106.074 755,-106.074 755,-70.0737 905,-70.0737 905,-106.074"/>
<text text-anchor="middle" x="830" y="-83.4737" font-family="Times Roman,serif" font-size="14.00">NoOptionException</text>
</a>
</g>
<!-- 8cb1e1ea972eac5d2b34288174018ff0&#45;&gt;59852f5f5aeb9baac5559e683c18c585 -->
<g id="edge38" class="edge"><title>8cb1e1ea972eac5d2b34288174018ff0-&gt;59852f5f5aeb9baac5559e683c18c585</title>
<path fill="none" stroke="black" d="M754.252,-88.0737C733.727,-88.0737 711.512,-88.0737 691,-88.0737"/>
</g>
<!-- 1972162996edfdf1892158db6df670c0 -->
<g id="node21" class="node"><title>1972162996edfdf1892158db6df670c0</title>
<a xlink:href="_ConfigParser_Exception_DuplicateSectionException.html" xlink:title="DuplicateSectionException" target="_top">
<polygon fill="white" stroke="black" points="932,-40.0737 728,-40.0737 728,-4.07368 932,-4.07368 932,-40.0737"/>
<text text-anchor="middle" x="830" y="-17.4737" font-family="Times Roman,serif" font-size="14.00">DuplicateSectionException</text>
</a>
</g>
<!-- 1972162996edfdf1892158db6df670c0&#45;&gt;59852f5f5aeb9baac5559e683c18c585 -->
<g id="edge40" class="edge"><title>1972162996edfdf1892158db6df670c0-&gt;59852f5f5aeb9baac5559e683c18c585</title>
<path fill="none" stroke="black" d="M774.811,-40.1243C759.292,-46.0095 742.659,-53.1074 728,-61.0737 710.113,-70.7942 711.357,-88.0737 691,-88.0737"/>
<path fill="none" stroke="black" d="M691,-88.0737C675.935,-88.0737 659.881,-88.0737 644.397,-88.0737"/>
<polygon fill="none" stroke="black" points="644.321,-84.5738 634.321,-88.0737 644.321,-91.5738 644.321,-84.5738"/>
</g>
</g>
<script xlink:href="js/SVGPan.js"/></svg>
