<?xml version="1.0" encoding="UTF-8" standalone="no"?>
<!DOCTYPE svg PUBLIC "-//W3C//DTD SVG 1.1//EN" "http://www.w3.org/Graphics/SVG/1.1/DTD/svg11.dtd">
<!-- Generated by graphviz version 2.26.3 (20100126.1600)
 -->
<!-- Title: G Pages: 1 -->
<svg xmlns="http://www.w3.org/2000/svg" xmlns:xlink="http://www.w3.org/1999/xlink" width="971pt" height="1324pt">
<g id="viewport" class="graph" transform="scale(1 1) rotate(0) translate(4 1320)">
<title>G</title>
<polygon fill="white" stroke="white" points="-4,5 -4,-1320 968,-1320 968,5 -4,5"/>
<g id="graph2" class="cluster"><title>cluster_NoiseLabs</title>
<polyline fill="none" stroke="gray" points="20,-158 943,-158 "/>
<path fill="none" stroke="gray" d="M943,-158C949,-158 955,-164 955,-170"/>
<polyline fill="none" stroke="gray" points="955,-170 955,-1296 "/>
<path fill="none" stroke="gray" d="M955,-1296C955,-1302 949,-1308 943,-1308"/>
<polyline fill="none" stroke="gray" points="943,-1308 20,-1308 "/>
<path fill="none" stroke="gray" d="M20,-1308C14,-1308 8,-1302 8,-1296"/>
<polyline fill="none" stroke="gray" points="8,-1296 8,-170 "/>
<path fill="none" stroke="gray" d="M8,-170C8,-164 14,-158 20,-158"/>
<text text-anchor="middle" x="481.5" y="-1294.1" font-family="Times Roman,serif" font-size="11.00" fill="gray">NoiseLabs</text>
</g>
<g id="graph3" class="cluster"><title>cluster_NoiseLabs_ToolKit</title>
<polyline fill="none" stroke="gray" points="28,-166 935,-166 "/>
<path fill="none" stroke="gray" d="M935,-166C941,-166 947,-172 947,-178"/>
<polyline fill="none" stroke="gray" points="947,-178 947,-1265 "/>
<path fill="none" stroke="gray" d="M947,-1265C947,-1271 941,-1277 935,-1277"/>
<polyline fill="none" stroke="gray" points="935,-1277 28,-1277 "/>
<path fill="none" stroke="gray" d="M28,-1277C22,-1277 16,-1271 16,-1265"/>
<polyline fill="none" stroke="gray" points="16,-1265 16,-178 "/>
<path fill="none" stroke="gray" d="M16,-178C16,-172 22,-166 28,-166"/>
<text text-anchor="middle" x="481.5" y="-1263.1" font-family="Times Roman,serif" font-size="11.00" fill="gray">ToolKit</text>
</g>
<g id="graph4" class="cluster"><title>cluster_NoiseLabs_ToolKit_ConfigParser</title>
<polyline fill="none" stroke="gray" points="287,-220 927,-220 "/>
<path fill="none" stroke="gray" d="M927,-220C933,-220 939,-226 939,-232"/>
<polyline fill="none" stroke="gray" points="939,-232 939,-628 "/>
<path fill="none" stroke="gray" d="M939,-628C939,-634 933,-640 927,-640"/>
<polyline fill="none" stroke="gray" points="927,-640 287,-640 "/>
<path fill="none" stroke="gray" d="M287,-640C281,-640 275,-634 275,-628"/>
<polyline fill="none" stroke="gray" points="275,-628 275,-232 "/>
<path fill="none" stroke="gray" d="M275,-232C275,-226 281,-220 287,-220"/>
<text text-anchor="middle" x="607" y="-626.1" font-family="Times Roman,serif" font-size="11.00" fill="gray">ConfigParser</text>
</g>
<g id="graph5" class="cluster"><title>cluster_NoiseLabs_ToolKit_ConfigParser_Exception</title>
<polyline fill="none" stroke="gray" points="741,-274 919,-274 "/>
<path fill="none" stroke="gray" d="M919,-274C925,-274 931,-280 931,-286"/>
<polyline fill="none" stroke="gray" points="931,-286 931,-445 "/>
<path fill="none" stroke="gray" d="M931,-445C931,-451 925,-457 919,-457"/>
<polyline fill="none" stroke="gray" points="919,-457 741,-457 "/>
<path fill="none" stroke="gray" d="M741,-457C735,-457 729,-451 729,-445"/>
<polyline fill="none" stroke="gray" points="729,-445 729,-286 "/>
<path fill="none" stroke="gray" d="M729,-286C729,-280 735,-274 741,-274"/>
<text text-anchor="middle" x="830" y="-443.1" font-family="Times Roman,serif" font-size="11.00" fill="gray">Exception</text>
</g>
<g id="graph7" class="cluster"><title>cluster_NoiseLabs_ToolKit_GoogleAPI</title>
<polyline fill="none" stroke="gray" points="36,-839 878,-839 "/>
<path fill="none" stroke="gray" d="M878,-839C884,-839 890,-845 890,-851"/>
<polyline fill="none" stroke="gray" points="890,-851 890,-1234 "/>
<path fill="none" stroke="gray" d="M890,-1234C890,-1240 884,-1246 878,-1246"/>
<polyline fill="none" stroke="gray" points="878,-1246 36,-1246 "/>
<path fill="none" stroke="gray" d="M36,-1246C30,-1246 24,-1240 24,-1234"/>
<polyline fill="none" stroke="gray" points="24,-1234 24,-851 "/>
<path fill="none" stroke="gray" d="M24,-851C24,-845 30,-839 36,-839"/>
<text text-anchor="middle" x="457" y="-1232.1" font-family="Times Roman,serif" font-size="11.00" fill="gray">GoogleAPI</text>
</g>
<g id="graph8" class="cluster"><title>cluster_NoiseLabs_ToolKit_GoogleAPI_Maps</title>
<polyline fill="none" stroke="gray" points="44,-947 870,-947 "/>
<path fill="none" stroke="gray" d="M870,-947C876,-947 882,-953 882,-959"/>
<polyline fill="none" stroke="gray" points="882,-959 882,-1203 "/>
<path fill="none" stroke="gray" d="M882,-1203C882,-1209 876,-1215 870,-1215"/>
<polyline fill="none" stroke="gray" points="870,-1215 44,-1215 "/>
<path fill="none" stroke="gray" d="M44,-1215C38,-1215 32,-1209 32,-1203"/>
<polyline fill="none" stroke="gray" points="32,-1203 32,-959 "/>
<path fill="none" stroke="gray" d="M32,-959C32,-953 38,-947 44,-947"/>
<text text-anchor="middle" x="457" y="-1201.1" font-family="Times Roman,serif" font-size="11.00" fill="gray">Maps</text>
</g>
<g id="graph9" class="cluster"><title>cluster_NoiseLabs_ToolKit_GoogleAPI_Maps_Overlay</title>
<polyline fill="none" stroke="gray" points="270,-1109 862,-1109 "/>
<path fill="none" stroke="gray" d="M862,-1109C868,-1109 874,-1115 874,-1121"/>
<polyline fill="none" stroke="gray" points="874,-1121 874,-1172 "/>
<path fill="none" stroke="gray" d="M874,-1172C874,-1178 868,-1184 862,-1184"/>
<polyline fill="none" stroke="gray" points="862,-1184 270,-1184 "/>
<path fill="none" stroke="gray" d="M270,-1184C264,-1184 258,-1178 258,-1172"/>
<polyline fill="none" stroke="gray" points="258,-1172 258,-1121 "/>
<path fill="none" stroke="gray" d="M258,-1121C258,-1115 264,-1109 270,-1109"/>
<text text-anchor="middle" x="566" y="-1170.1" font-family="Times Roman,serif" font-size="11.00" fill="gray">Overlay</text>
</g>
<g id="graph14" class="cluster"><title>cluster_NoiseLabs_ToolKit_Runner</title>
<polyline fill="none" stroke="gray" points="372,-648 882,-648 "/>
<path fill="none" stroke="gray" d="M882,-648C888,-648 894,-654 894,-660"/>
<polyline fill="none" stroke="gray" points="894,-660 894,-819 "/>
<path fill="none" stroke="gray" d="M894,-819C894,-825 888,-831 882,-831"/>
<polyline fill="none" stroke="gray" points="882,-831 372,-831 "/>
<path fill="none" stroke="gray" d="M372,-831C366,-831 360,-825 360,-819"/>
<polyline fill="none" stroke="gray" points="360,-819 360,-660 "/>
<path fill="none" stroke="gray" d="M360,-660C360,-654 366,-648 372,-648"/>
<text text-anchor="middle" x="627" y="-817.1" font-family="Times Roman,serif" font-size="11.00" fill="gray">Runner</text>
</g>
<!-- _NoiseLabs_ToolKit_ConfigParser_Exception_NoSectionException -->
<g id="node5" class="node"><title>_NoiseLabs_ToolKit_ConfigParser_Exception_NoSectionException</title>
<a xlink:href="db_NoiseLabs_ToolKit_ConfigParser_Exception_NoSectionException.html" xlink:title="NoSectionException" target="_parent">
<polygon fill="none" stroke="black" points="899,-372 761,-372 761,-336 899,-336 899,-372"/>
<text text-anchor="middle" x="830" y="-351.1" font-family="Courier New" font-size="11.00">NoSectionException</text>
</a>
</g>
<!-- _RuntimeException -->
<g id="node57" class="node"><title>_RuntimeException</title>
<ellipse fill="none" stroke="black" cx="454" cy="-75" rx="85.7684" ry="19.0919"/>
<text text-anchor="middle" x="454" y="-71.9" font-family="Times Roman,serif" font-size="14.00" fill="gray">\RuntimeException</text>
</g>
<!-- _NoiseLabs_ToolKit_ConfigParser_Exception_NoSectionException&#45;&gt;_RuntimeException -->
<g id="edge36" class="edge"><title>_NoiseLabs_ToolKit_ConfigParser_Exception_NoSectionException-&gt;_RuntimeException</title>
<path fill="none" stroke="black" d="M760.833,-345.702C749.053,-341.613 737.802,-335.652 729,-327 655.164,-254.415 743.371,-170.664 665,-103 631.208,-73.8242 582.317,-65.9502 540.105,-65.7701"/>
<polygon fill="none" stroke="black" points="540.058,-62.2703 530.092,-65.8681 540.126,-69.27 540.058,-62.2703"/>
</g>
<!-- _NoiseLabs_ToolKit_ConfigParser_Exception_NoOptionException -->
<g id="node6" class="node"><title>_NoiseLabs_ToolKit_ConfigParser_Exception_NoOptionException</title>
<a xlink:href="db_NoiseLabs_ToolKit_ConfigParser_Exception_NoOptionException.html" xlink:title="NoOptionException" target="_parent">
<polygon fill="none" stroke="black" points="895,-318 765,-318 765,-282 895,-282 895,-318"/>
<text text-anchor="middle" x="830" y="-297.1" font-family="Courier New" font-size="11.00">NoOptionException</text>
</a>
</g>
<!-- _NoiseLabs_ToolKit_ConfigParser_Exception_NoOptionException&#45;&gt;_RuntimeException -->
<g id="edge38" class="edge"><title>_NoiseLabs_ToolKit_ConfigParser_Exception_NoOptionException-&gt;_RuntimeException</title>
<path fill="none" stroke="black" d="M764.351,-295.619C751.497,-292.176 738.94,-286.671 729,-278 666.593,-223.559 729.6,-154.82 665,-103 630.981,-75.7111 583.484,-67.6323 542.166,-66.8512"/>
<polygon fill="none" stroke="black" points="542.101,-63.3509 532.083,-66.8002 542.065,-70.3508 542.101,-63.3509"/>
</g>
<!-- _NoiseLabs_ToolKit_ConfigParser_Exception_DuplicateSectionException -->
<g id="node7" class="node"><title>_NoiseLabs_ToolKit_ConfigParser_Exception_DuplicateSectionException</title>
<a xlink:href="db_NoiseLabs_ToolKit_ConfigParser_Exception_DuplicateSectionException.html" xlink:title="DuplicateSectionException" target="_parent">
<polygon fill="none" stroke="black" points="922,-426 738,-426 738,-390 922,-390 922,-426"/>
<text text-anchor="middle" x="830" y="-405.1" font-family="Courier New" font-size="11.00">DuplicateSectionException</text>
</a>
</g>
<!-- _NoiseLabs_ToolKit_ConfigParser_Exception_DuplicateSectionException&#45;&gt;_RuntimeException -->
<g id="edge40" class="edge"><title>_NoiseLabs_ToolKit_ConfigParser_Exception_DuplicateSectionException-&gt;_RuntimeException</title>
<path fill="none" stroke="black" d="M739.852,-389.999C735.932,-387.378 732.278,-384.395 729,-381 640.928,-289.795 758.78,-188.325 665,-103 631.409,-72.4371 581.441,-64.7658 538.563,-65.0506"/>
<polygon fill="none" stroke="black" points="538.323,-61.5548 528.399,-65.2648 538.471,-68.5532 538.323,-61.5548"/>
</g>
<!-- _NoiseLabs_ToolKit_ConfigParser_NoSectionsConfigParserInterface -->
<g id="node8" class="node"><title>_NoiseLabs_ToolKit_ConfigParser_NoSectionsConfigParserInterface</title>
<a xlink:href="db_NoiseLabs_ToolKit_ConfigParser_NoSectionsConfigParserInterface.html" xlink:title="NoSectionsConfigParserInterface" target="_parent">
<polygon fill="none" stroke="black" points="567,-383 341,-383 341,-347 567,-347 567,-383"/>
<text text-anchor="middle" x="454" y="-362.1" font-family="Courier New" font-size="11.00">NoSectionsConfigParserInterface</text>
</a>
</g>
<!-- _NoiseLabs_ToolKit_ConfigParser_ConfigParser -->
<g id="node9" class="node"><title>_NoiseLabs_ToolKit_ConfigParser_ConfigParser</title>
<a xlink:href="db_NoiseLabs_ToolKit_ConfigParser_ConfigParser.html" xlink:title="ConfigParser" target="_parent">
<polygon fill="none" stroke="black" points="879,-609 781,-609 781,-573 879,-573 879,-609"/>
<text text-anchor="middle" x="830" y="-588.1" font-family="Courier New" font-size="11.00">ConfigParser</text>
</a>
</g>
<!-- _NoiseLabs_ToolKit_ConfigParser_BaseConfigParser -->
<g id="node11" class="node"><title>_NoiseLabs_ToolKit_ConfigParser_BaseConfigParser</title>
<a xlink:href="db_NoiseLabs_ToolKit_ConfigParser_BaseConfigParser.html" xlink:title="&lt;I&gt;_NoiseLabs_ToolKit_ConfigParser_BaseConfigParser&lt;/I&gt;" target="_parent">
<polygon fill="none" stroke="black" points="625,-437 283,-437 283,-401 625,-401 625,-437"/>
<text text-anchor="start" x="291.5" y="-416.933" font-family="Courier New" font-size="11.00">_NoiseLabs_ToolKit_ConfigParser_BaseConfigParser</text>
</a>
</g>
<!-- _NoiseLabs_ToolKit_ConfigParser_ConfigParser&#45;&gt;_NoiseLabs_ToolKit_ConfigParser_BaseConfigParser -->
<g id="edge34" class="edge"><title>_NoiseLabs_ToolKit_ConfigParser_ConfigParser-&gt;_NoiseLabs_ToolKit_ConfigParser_BaseConfigParser</title>
<path fill="none" stroke="black" d="M780.999,-580.252C764.246,-575.962 745.563,-570.486 729,-564 640.579,-529.376 543.806,-473.857 491.924,-442.517"/>
<polygon fill="none" stroke="black" points="493.44,-439.343 483.076,-437.143 489.806,-445.326 493.44,-439.343"/>
</g>
<!-- _NoiseLabs_ToolKit_ConfigParser_ConfigParserInterface -->
<g id="node13" class="node"><title>_NoiseLabs_ToolKit_ConfigParser_ConfigParserInterface</title>
<a xlink:href="db_NoiseLabs_ToolKit_ConfigParser_ConfigParserInterface.html" xlink:title="ConfigParserInterface" target="_parent">
<polygon fill="none" stroke="black" points="533,-609 375,-609 375,-573 533,-573 533,-609"/>
<text text-anchor="middle" x="454" y="-588.1" font-family="Courier New" font-size="11.00">ConfigParserInterface</text>
</a>
</g>
<!-- _NoiseLabs_ToolKit_ConfigParser_ConfigParser&#45;&gt;_NoiseLabs_ToolKit_ConfigParser_ConfigParserInterface -->
<g id="edge48" class="edge"><title>_NoiseLabs_ToolKit_ConfigParser_ConfigParser-&gt;_NoiseLabs_ToolKit_ConfigParser_ConfigParserInterface</title>
<path fill="none" stroke="black" stroke-dasharray="1,5" d="M780.845,-591C720.672,-591 617.624,-591 543.301,-591"/>
<polygon fill="none" stroke="black" points="543.012,-587.5 533.012,-591 543.012,-594.5 543.012,-587.5"/>
</g>
<!-- _NoiseLabs_ToolKit_ConfigParser_ParameterBag -->
<g id="node10" class="node"><title>_NoiseLabs_ToolKit_ConfigParser_ParameterBag</title>
<a xlink:href="db_NoiseLabs_ToolKit_ConfigParser_ParameterBag.html" xlink:title="ParameterBag" target="_parent">
<polygon fill="none" stroke="black" points="879,-501 781,-501 781,-465 879,-465 879,-501"/>
<text text-anchor="middle" x="830" y="-480.1" font-family="Courier New" font-size="11.00">ParameterBag</text>
</a>
</g>
<!-- _ArrayAccess -->
<g id="node62" class="node"><title>_ArrayAccess</title>
<ellipse fill="none" stroke="black" cx="89" cy="-131" rx="63.1385" ry="19.0919"/>
<text text-anchor="middle" x="89" y="-127.9" font-family="Times Roman,serif" font-size="14.00" fill="gray">\ArrayAccess</text>
</g>
<!-- _NoiseLabs_ToolKit_ConfigParser_BaseConfigParser&#45;&gt;_ArrayAccess -->
<g id="edge50" class="edge"><title>_NoiseLabs_ToolKit_ConfigParser_BaseConfigParser-&gt;_ArrayAccess</title>
<path fill="none" stroke="black" stroke-dasharray="1,5" d="M282.925,-411.038C268.798,-406.294 255.259,-400.076 243,-392 157.972,-335.988 113.492,-215.505 96.8463,-160.036"/>
<polygon fill="none" stroke="black" points="100.126,-158.78 93.9713,-150.157 93.4048,-160.736 100.126,-158.78"/>
</g>
<!-- _IteratorAggregate -->
<g id="node67" class="node"><title>_IteratorAggregate</title>
<ellipse fill="none" stroke="black" cx="89" cy="-75" rx="82.0244" ry="19.0919"/>
<text text-anchor="middle" x="89" y="-71.9" font-family="Times Roman,serif" font-size="14.00" fill="gray">\IteratorAggregate</text>
</g>
<!-- _NoiseLabs_ToolKit_ConfigParser_BaseConfigParser&#45;&gt;_IteratorAggregate -->
<g id="edge52" class="edge"><title>_NoiseLabs_ToolKit_ConfigParser_BaseConfigParser-&gt;_IteratorAggregate</title>
<path fill="none" stroke="black" stroke-dasharray="1,5" d="M282.986,-415.751C268.377,-410.143 254.728,-402.431 243,-392 144.092,-304.027 260.544,-200.487 171,-103 167.403,-99.0843 163.237,-95.7161 158.726,-92.8189"/>
<polygon fill="none" stroke="black" points="160.131,-89.5956 149.688,-87.8077 156.736,-95.7176 160.131,-89.5956"/>
</g>
<!-- _Countable -->
<g id="node69" class="node"><title>_Countable</title>
<ellipse fill="none" stroke="black" cx="89" cy="-19" rx="53.2379" ry="19.0919"/>
<text text-anchor="middle" x="89" y="-15.9" font-family="Times Roman,serif" font-size="14.00" fill="gray">\Countable</text>
</g>
<!-- _NoiseLabs_ToolKit_ConfigParser_BaseConfigParser&#45;&gt;_Countable -->
<g id="edge54" class="edge"><title>_NoiseLabs_ToolKit_ConfigParser_BaseConfigParser-&gt;_Countable</title>
<path fill="none" stroke="black" stroke-dasharray="1,5" d="M282.82,-416.317C268.198,-410.608 254.593,-402.717 243,-392 127.982,-285.671 274.724,-164.373 171,-47 164.642,-39.8051 156.357,-34.4574 147.501,-30.483"/>
<polygon fill="none" stroke="black" points="148.71,-27.1979 138.122,-26.8185 146.162,-33.7179 148.71,-27.1979"/>
</g>
<!-- _NoiseLabs_ToolKit_ConfigParser_NoSectionsConfigParser -->
<g id="node12" class="node"><title>_NoiseLabs_ToolKit_ConfigParser_NoSectionsConfigParser</title>
<a xlink:href="db_NoiseLabs_ToolKit_ConfigParser_NoSectionsConfigParser.html" xlink:title="NoSectionsConfigParser" target="_parent">
<polygon fill="none" stroke="black" points="912,-555 748,-555 748,-519 912,-519 912,-555"/>
<text text-anchor="middle" x="830" y="-534.1" font-family="Courier New" font-size="11.00">NoSectionsConfigParser</text>
</a>
</g>
<!-- _NoiseLabs_ToolKit_ConfigParser_NoSectionsConfigParser&#45;&gt;_NoiseLabs_ToolKit_ConfigParser_NoSectionsConfigParserInterface -->
<g id="edge56" class="edge"><title>_NoiseLabs_ToolKit_ConfigParser_NoSectionsConfigParser-&gt;_NoiseLabs_ToolKit_ConfigParser_NoSectionsConfigParserInterface</title>
<path fill="none" stroke="black" stroke-dasharray="1,5" d="M747.301,-521.135C740.769,-518.055 734.559,-514.382 729,-510 682.144,-473.067 714.222,-425.715 665,-392 639.431,-374.487 607.952,-365.554 577.186,-361.458"/>
<polygon fill="none" stroke="black" points="577.569,-357.979 567.23,-360.294 576.756,-364.932 577.569,-357.979"/>
</g>
<!-- _NoiseLabs_ToolKit_ConfigParser_NoSectionsConfigParser&#45;&gt;_NoiseLabs_ToolKit_ConfigParser_BaseConfigParser -->
<g id="edge42" class="edge"><title>_NoiseLabs_ToolKit_ConfigParser_NoSectionsConfigParser-&gt;_NoiseLabs_ToolKit_ConfigParser_BaseConfigParser</title>
<path fill="none" stroke="black" d="M760.305,-518.939C749.787,-516.049 739.087,-513.014 729,-510 654.909,-487.859 570.608,-459.484 515.094,-440.353"/>
<polygon fill="none" stroke="black" points="516.009,-436.966 505.414,-437.01 513.724,-443.583 516.009,-436.966"/>
</g>
<!-- _NoiseLabs_ToolKit_ConfigParser_File -->
<g id="node14" class="node"><title>_NoiseLabs_ToolKit_ConfigParser_File</title>
<a xlink:href="db_NoiseLabs_ToolKit_ConfigParser_File.html" xlink:title="File" target="_parent">
<polygon fill="none" stroke="black" points="857,-264 803,-264 803,-228 857,-228 857,-264"/>
<text text-anchor="middle" x="830" y="-243.1" font-family="Courier New" font-size="11.00">File</text>
</a>
</g>
<!-- _NoiseLabs_ToolKit_GoogleAPI_Maps_Overlay_Polyline -->
<g id="node19" class="node"><title>_NoiseLabs_ToolKit_GoogleAPI_Maps_Overlay_Polyline</title>
<a xlink:href="db_NoiseLabs_ToolKit_GoogleAPI_Maps_Overlay_Polyline.html" xlink:title="Polyline" target="_parent">
<polygon fill="none" stroke="black" points="865,-1153 795,-1153 795,-1117 865,-1117 865,-1153"/>
<text text-anchor="middle" x="830" y="-1132.1" font-family="Courier New" font-size="11.00">Polyline</text>
</a>
</g>
<!-- _NoiseLabs_ToolKit_GoogleAPI_Maps_Overlay_BaseOverlay -->
<g id="node20" class="node"><title>_NoiseLabs_ToolKit_GoogleAPI_Maps_Overlay_BaseOverlay</title>
<a xlink:href="db_NoiseLabs_ToolKit_GoogleAPI_Maps_Overlay_BaseOverlay.html" xlink:title="&lt;I&gt;_NoiseLabs_ToolKit_GoogleAPI_Maps_Overlay_BaseOverlay&lt;/I&gt;" target="_parent">
<polygon fill="none" stroke="black" points="641,-1153 267,-1153 267,-1117 641,-1117 641,-1153"/>
<text text-anchor="start" x="275" y="-1132.93" font-family="Courier New" font-size="11.00">_NoiseLabs_ToolKit_GoogleAPI_Maps_Overlay_BaseOverlay</text>
</a>
</g>
<!-- _NoiseLabs_ToolKit_GoogleAPI_Maps_Overlay_Polyline&#45;&gt;_NoiseLabs_ToolKit_GoogleAPI_Maps_Overlay_BaseOverlay -->
<g id="edge32" class="edge"><title>_NoiseLabs_ToolKit_GoogleAPI_Maps_Overlay_Polyline-&gt;_NoiseLabs_ToolKit_GoogleAPI_Maps_Overlay_BaseOverlay</title>
<path fill="none" stroke="black" d="M794.288,-1135C760.464,-1135 706.824,-1135 652.044,-1135"/>
<polygon fill="none" stroke="black" points="651.806,-1131.5 641.806,-1135 651.806,-1138.5 651.806,-1131.5"/>
</g>
<!-- _NoiseLabs_ToolKit_GoogleAPI_Maps_Map -->
<g id="node21" class="node"><title>_NoiseLabs_ToolKit_GoogleAPI_Maps_Map</title>
<a xlink:href="db_NoiseLabs_ToolKit_GoogleAPI_Maps_Map.html" xlink:title="Map" target="_parent">
<polygon fill="none" stroke="black" points="857,-1099 803,-1099 803,-1063 857,-1063 857,-1099"/>
<text text-anchor="middle" x="830" y="-1078.1" font-family="Courier New" font-size="11.00">Map</text>
</a>
</g>
<!-- _NoiseLabs_ToolKit_GoogleAPI_Maps_BaseMap -->
<g id="node22" class="node"><title>_NoiseLabs_ToolKit_GoogleAPI_Maps_BaseMap</title>
<a xlink:href="db_NoiseLabs_ToolKit_GoogleAPI_Maps_BaseMap.html" xlink:title="&lt;I&gt;_NoiseLabs_ToolKit_GoogleAPI_Maps_BaseMap&lt;/I&gt;" target="_parent">
<polygon fill="none" stroke="black" points="601,-1072 307,-1072 307,-1036 601,-1036 601,-1072"/>
<text text-anchor="start" x="315.5" y="-1051.93" font-family="Courier New" font-size="11.00">_NoiseLabs_ToolKit_GoogleAPI_Maps_BaseMap</text>
</a>
</g>
<!-- _NoiseLabs_ToolKit_GoogleAPI_Maps_Map&#45;&gt;_NoiseLabs_ToolKit_GoogleAPI_Maps_BaseMap -->
<g id="edge26" class="edge"><title>_NoiseLabs_ToolKit_GoogleAPI_Maps_Map-&gt;_NoiseLabs_ToolKit_GoogleAPI_Maps_BaseMap</title>
<path fill="none" stroke="black" d="M802.959,-1079.06C762.673,-1076.17 683.842,-1070.5 611.284,-1065.29"/>
<polygon fill="none" stroke="black" points="611.317,-1061.79 601.092,-1064.56 610.816,-1068.77 611.317,-1061.79"/>
</g>
<!-- _NoiseLabs_ToolKit_GoogleAPI_Maps_MapInterface -->
<g id="node25" class="node"><title>_NoiseLabs_ToolKit_GoogleAPI_Maps_MapInterface</title>
<a xlink:href="db_NoiseLabs_ToolKit_GoogleAPI_Maps_MapInterface.html" xlink:title="MapInterface" target="_parent">
<polygon fill="none" stroke="black" points="138,-1072 40,-1072 40,-1036 138,-1036 138,-1072"/>
<text text-anchor="middle" x="89" y="-1051.1" font-family="Courier New" font-size="11.00">MapInterface</text>
</a>
</g>
<!-- _NoiseLabs_ToolKit_GoogleAPI_Maps_BaseMap&#45;&gt;_NoiseLabs_ToolKit_GoogleAPI_Maps_MapInterface -->
<g id="edge46" class="edge"><title>_NoiseLabs_ToolKit_GoogleAPI_Maps_BaseMap-&gt;_NoiseLabs_ToolKit_GoogleAPI_Maps_MapInterface</title>
<path fill="none" stroke="black" stroke-dasharray="1,5" d="M306.855,-1054C251.439,-1054 191.499,-1054 148.547,-1054"/>
<polygon fill="none" stroke="black" points="148.281,-1050.5 138.281,-1054 148.281,-1057.5 148.281,-1050.5"/>
</g>
<!-- _NoiseLabs_ToolKit_GoogleAPI_Maps_Marker -->
<g id="node23" class="node"><title>_NoiseLabs_ToolKit_GoogleAPI_Maps_Marker</title>
<a xlink:href="db_NoiseLabs_ToolKit_GoogleAPI_Maps_Marker.html" xlink:title="Marker" target="_parent">
<polygon fill="none" stroke="black" points="858,-991 802,-991 802,-955 858,-955 858,-991"/>
<text text-anchor="middle" x="830" y="-970.1" font-family="Courier New" font-size="11.00">Marker</text>
</a>
</g>
<!-- _NoiseLabs_ToolKit_GoogleAPI_Maps_BaseOverlay -->
<g id="node52" class="node"><title>_NoiseLabs_ToolKit_GoogleAPI_Maps_BaseOverlay</title>
<ellipse fill="none" stroke="black" cx="454" cy="-131" rx="210.217" ry="19.0919"/>
<text text-anchor="middle" x="454" y="-127.9" font-family="Times Roman,serif" font-size="14.00" fill="gray">\NoiseLabs\ToolKit\GoogleAPI\Maps\BaseOverlay</text>
</g>
<!-- _NoiseLabs_ToolKit_GoogleAPI_Maps_Marker&#45;&gt;_NoiseLabs_ToolKit_GoogleAPI_Maps_BaseOverlay -->
<g id="edge28" class="edge"><title>_NoiseLabs_ToolKit_GoogleAPI_Maps_Marker-&gt;_NoiseLabs_ToolKit_GoogleAPI_Maps_BaseOverlay</title>
<path fill="none" stroke="black" d="M801.074,-975.204C777.98,-975.234 746.663,-971.075 729,-951 620.697,-827.912 762.562,-347.764 665,-216 640.79,-183.302 601.895,-163.156 564.055,-150.754"/>
<polygon fill="none" stroke="black" points="565.056,-147.4 554.467,-147.765 562.972,-154.083 565.056,-147.4"/>
</g>
<!-- _NoiseLabs_ToolKit_GoogleAPI_Maps_StaticMap -->
<g id="node24" class="node"><title>_NoiseLabs_ToolKit_GoogleAPI_Maps_StaticMap</title>
<a xlink:href="db_NoiseLabs_ToolKit_GoogleAPI_Maps_StaticMap.html" xlink:title="StaticMap" target="_parent">
<polygon fill="none" stroke="black" points="868,-1045 792,-1045 792,-1009 868,-1009 868,-1045"/>
<text text-anchor="middle" x="830" y="-1024.1" font-family="Courier New" font-size="11.00">StaticMap</text>
</a>
</g>
<!-- _NoiseLabs_ToolKit_GoogleAPI_Maps_StaticMap&#45;&gt;_NoiseLabs_ToolKit_GoogleAPI_Maps_BaseMap -->
<g id="edge30" class="edge"><title>_NoiseLabs_ToolKit_GoogleAPI_Maps_StaticMap-&gt;_NoiseLabs_ToolKit_GoogleAPI_Maps_BaseMap</title>
<path fill="none" stroke="black" d="M791.178,-1029.79C748.523,-1032.85 677.275,-1037.97 611.234,-1042.71"/>
<polygon fill="none" stroke="black" points="610.833,-1039.23 601.109,-1043.44 611.334,-1046.21 610.833,-1039.23"/>
</g>
<!-- _NoiseLabs_ToolKit_GoogleAPI_GoogleMap -->
<g id="node27" class="node"><title>_NoiseLabs_ToolKit_GoogleAPI_GoogleMap</title>
<a xlink:href="db_NoiseLabs_ToolKit_GoogleAPI_GoogleMap.html" xlink:title="GoogleMap" target="_parent">
<polygon fill="none" stroke="black" points="868,-937 792,-937 792,-901 868,-901 868,-937"/>
<text text-anchor="middle" x="830" y="-916.1" font-family="Courier New" font-size="11.00">GoogleMap</text>
</a>
</g>
<!-- _NoiseLabs_ToolKit_GoogleAPI_ParameterBag -->
<g id="node28" class="node"><title>_NoiseLabs_ToolKit_GoogleAPI_ParameterBag</title>
<a xlink:href="db_NoiseLabs_ToolKit_GoogleAPI_ParameterBag.html" xlink:title="ParameterBag" target="_parent">
<polygon fill="none" stroke="black" points="879,-883 781,-883 781,-847 879,-847 879,-883"/>
<text text-anchor="middle" x="830" y="-862.1" font-family="Courier New" font-size="11.00">ParameterBag</text>
</a>
</g>
<!-- _NoiseLabs_ToolKit_Runner_ProcessManager -->
<g id="node33" class="node"><title>_NoiseLabs_ToolKit_Runner_ProcessManager</title>
<a xlink:href="db_NoiseLabs_ToolKit_Runner_ProcessManager.html" xlink:title="ProcessManager" target="_parent">
<polygon fill="none" stroke="black" points="885,-800 775,-800 775,-764 885,-764 885,-800"/>
<text text-anchor="middle" x="830" y="-779.1" font-family="Courier New" font-size="11.00">ProcessManager</text>
</a>
</g>
<!-- _NoiseLabs_ToolKit_Runner_ProcessManagerInterface -->
<g id="node36" class="node"><title>_NoiseLabs_ToolKit_Runner_ProcessManagerInterface</title>
<a xlink:href="db_NoiseLabs_ToolKit_Runner_ProcessManagerInterface.html" xlink:title="ProcessManagerInterface" target="_parent">
<polygon fill="none" stroke="black" points="540,-773 368,-773 368,-737 540,-737 540,-773"/>
<text text-anchor="middle" x="454" y="-752.1" font-family="Courier New" font-size="11.00">ProcessManagerInterface</text>
</a>
</g>
<!-- _NoiseLabs_ToolKit_Runner_ProcessManager&#45;&gt;_NoiseLabs_ToolKit_Runner_ProcessManagerInterface -->
<g id="edge58" class="edge"><title>_NoiseLabs_ToolKit_Runner_ProcessManager-&gt;_NoiseLabs_ToolKit_Runner_ProcessManagerInterface</title>
<path fill="none" stroke="black" stroke-dasharray="1,5" d="M774.115,-777.987C715.23,-773.759 621.378,-767.019 550.487,-761.929"/>
<polygon fill="none" stroke="black" points="550.426,-758.415 540.201,-761.19 549.925,-765.397 550.426,-758.415"/>
</g>
<!-- _NoiseLabs_ToolKit_Runner_ParameterBag -->
<g id="node34" class="node"><title>_NoiseLabs_ToolKit_Runner_ParameterBag</title>
<a xlink:href="db_NoiseLabs_ToolKit_Runner_ParameterBag.html" xlink:title="ParameterBag" target="_parent">
<polygon fill="none" stroke="black" points="879,-746 781,-746 781,-710 879,-710 879,-746"/>
<text text-anchor="middle" x="830" y="-725.1" font-family="Courier New" font-size="11.00">ParameterBag</text>
</a>
</g>
<!-- _NoiseLabs_ToolKit_Runner_ProcessInterface -->
<g id="node35" class="node"><title>_NoiseLabs_ToolKit_Runner_ProcessInterface</title>
<a xlink:href="db_NoiseLabs_ToolKit_Runner_ProcessInterface.html" xlink:title="ProcessInterface" target="_parent">
<polygon fill="none" stroke="black" points="516,-692 392,-692 392,-656 516,-656 516,-692"/>
<text text-anchor="middle" x="454" y="-671.1" font-family="Courier New" font-size="11.00">ProcessInterface</text>
</a>
</g>
<!-- _NoiseLabs_ToolKit_Runner_ProcessManagerInterface&#45;&gt;_ArrayAccess -->
<g id="edge44" class="edge"><title>_NoiseLabs_ToolKit_Runner_ProcessManagerInterface-&gt;_ArrayAccess</title>
<path fill="none" stroke="black" d="M367.815,-752.702C325.094,-747.128 275.769,-733.335 243,-701 163.552,-622.604 107.832,-265.114 92.9619,-160.092"/>
<polygon fill="none" stroke="black" points="96.4279,-159.605 91.5751,-150.187 89.4955,-160.575 96.4279,-159.605"/>
</g>
<!-- _NoiseLabs_ToolKit_Runner_Process -->
<g id="node37" class="node"><title>_NoiseLabs_ToolKit_Runner_Process</title>
<a xlink:href="db_NoiseLabs_ToolKit_Runner_Process.html" xlink:title="Process" target="_parent">
<polygon fill="none" stroke="black" points="862,-692 798,-692 798,-656 862,-656 862,-692"/>
<text text-anchor="middle" x="830" y="-671.1" font-family="Courier New" font-size="11.00">Process</text>
</a>
</g>
<!-- _NoiseLabs_ToolKit_Runner_Process&#45;&gt;_NoiseLabs_ToolKit_Runner_ProcessInterface -->
<g id="edge60" class="edge"><title>_NoiseLabs_ToolKit_Runner_Process-&gt;_NoiseLabs_ToolKit_Runner_ProcessInterface</title>
<path fill="none" stroke="black" stroke-dasharray="1,5" d="M797.942,-674C738.335,-674 609.069,-674 527.091,-674"/>
<polygon fill="none" stroke="black" points="526.841,-670.5 516.841,-674 526.841,-677.5 526.841,-670.5"/>
</g>
<!-- _NoiseLabs_ToolKit_Helper -->
<g id="node38" class="node"><title>_NoiseLabs_ToolKit_Helper</title>
<a xlink:href="db_NoiseLabs_ToolKit_Helper.html" xlink:title="Helper" target="_parent">
<polygon fill="none" stroke="black" points="858,-210 802,-210 802,-174 858,-174 858,-210"/>
<text text-anchor="middle" x="830" y="-189.1" font-family="Courier New" font-size="11.00">Helper</text>
</a>
</g>
</g>
<script xlink:href="js/SVGPan.js"/></svg>
